<?xml version="1.0" standalone="no"?>
<!DOCTYPE svg PUBLIC "-//W3C//DTD SVG 1.1//EN" "http://www.w3.org/Graphics/SVG/1.1/DTD/svg11.dtd" >
<svg xmlns="http://www.w3.org/2000/svg">
<metadata>Generated by IcoMoon</metadata>
<defs>
<font id="nui_iconfonts" horiz-adv-x="1024">
<font-face units-per-em="1024" ascent="960" descent="-64" />
<missing-glyph horiz-adv-x="1024" />
<glyph unicode="&#x20;" horiz-adv-x="512" d="" />
<glyph unicode="&#xe900;" glyph-name="icon_1_login" d="M746.667 810.667h-213.333c-58.812 0-106.667-47.855-106.667-106.667h42.667c0 35.29 28.71 64 64 64h213.333c35.29 0 64-28.71 64-64v-512c0-35.29-28.71-64-64-64h-213.333c-35.29 0-64 28.71-64 64h-42.667c0-58.812 47.855-106.667 106.667-106.667h213.333c58.812 0 106.667 47.855 106.667 106.667v512c0 58.812-47.855 106.667-106.667 106.667zM528.917 297.148l30.165-30.17 181.022 181.022-181.022 181.022-30.165-30.17 129.519-129.519h-445.103v-42.667h445.103l-129.519-129.519z" />
<glyph unicode="&#xe901;" glyph-name="icon_2_logout" d="M533.333 128h-213.333c-35.29 0-64 28.71-64 64v512c0 35.29 28.71 64 64 64h213.333c35.29 0 64-28.71 64-64h42.667c0 58.812-47.855 106.667-106.667 106.667h-213.333c-58.812 0-106.667-47.855-106.667-106.667v-512c0-58.812 47.855-106.667 106.667-106.667h213.333c58.812 0 106.667 47.855 106.667 106.667h-42.667c0-35.29-28.71-64-64-64zM687.061 629.023l-30.165-30.17 129.519-129.519h-445.103v-42.667h445.103l-129.519-129.519 30.165-30.17 181.022 181.022-181.022 181.022z" />
<glyph unicode="&#xe902;" glyph-name="icon_3_lock" d="M704 554.667h-21.333v149.333c0 82.334-66.999 149.333-149.333 149.333h-85.333c-82.334 0-149.333-66.999-149.333-149.333v-149.333h-21.333c-58.833 0-106.667-47.855-106.667-106.667v-298.667c0-58.812 47.834-106.667 106.667-106.667h426.667c58.833 0 106.667 47.855 106.667 106.667v298.667c0 58.812-47.834 106.667-106.667 106.667zM341.333 704c0 58.812 47.834 106.667 106.667 106.667h85.333c58.833 0 106.667-47.855 106.667-106.667v-149.333h-298.667v149.333zM768 149.334c0-35.29-28.71-64-64-64h-426.667c-35.29 0-64 28.71-64 64v298.667c0 35.29 28.71 64 64 64h426.667c35.29 0 64-28.71 64-64v-298.667zM512 384h-42.667v-170.667h42.667v170.667z" />
<glyph unicode="&#xe903;" glyph-name="icon_4_unlock" d="M704 554.667h-21.333v149.333c0 82.334-66.999 149.333-149.333 149.333h-85.333c-82.334 0-149.333-66.999-149.333-149.333h42.667c0 58.812 47.834 106.667 106.667 106.667h85.333c58.833 0 106.667-47.855 106.667-106.667v-149.333h-362.667c-58.833 0-106.667-47.855-106.667-106.667v-298.667c0-58.812 47.834-106.667 106.667-106.667h426.667c58.833 0 106.667 47.855 106.667 106.667v298.667c0 58.812-47.834 106.667-106.667 106.667zM768 149.334c0-35.29-28.71-64-64-64h-426.667c-35.29 0-64 28.71-64 64v298.667c0 35.29 28.71 64 64 64h426.667c35.29 0 64-28.71 64-64v-298.667zM512 384h-42.667v-170.667h42.667v170.667z" />
<glyph unicode="&#xe904;" glyph-name="icon_5_power" d="M512 853.334h-42.667v-469.333h42.667v469.333zM649.374 731.085l-18.752-38.332c111.044-54.212 180.045-164.335 180.045-287.42 0-176.457-143.543-320-320-320s-320 143.543-320 320c0 123.085 69.001 233.207 180.041 287.415l-18.752 38.332c-125.79-61.393-203.955-186.227-203.955-325.747 0-199.979 162.709-362.667 362.667-362.667s362.667 162.688 362.667 362.667c0 139.52-78.165 264.354-203.959 325.751z" />
<glyph unicode="&#xe905;" glyph-name="icon_6_home" d="M911.040 382.353l-353.792 353.771c-24.917 24.96-65.583 24.96-90.5 0l-353.873-353.873 30.165-30.165 70.294 70.289v-273.041c0-35.29 28.71-64 64-64h85.333c35.29 0 63.999 28.71 63.999 64v170.667c0 11.772 9.583 21.333 21.333 21.333h128c11.75 0 21.333-9.562 21.333-21.333v-170.667c0-35.29 28.71-64 64-64h85.333c35.29 0 64 28.71 64 64v273.058l70.208-70.204 30.165 30.165zM768 149.334c0-11.772-9.583-21.333-21.333-21.333h-85.333c-11.75 0-21.333 9.562-21.333 21.333v170.667c0 35.29-28.71 64-64 64h-128c-35.289 0-63.999-28.71-63.999-64v-170.667c0-11.772-9.583-21.333-21.333-21.333h-85.333c-11.75 0-21.333 9.562-21.333 21.333v315.708l240.916 240.917c8.333 8.333 21.833 8.333 30.165 0l240.917-240.905v-315.721z" />
<glyph unicode="&#xe906;" glyph-name="icon_7_setting" d="M512 554.667c-70.583 0-128-57.417-128-128s57.417-128 128-128c70.583 0 128 57.417 128 128s-57.417 128-128 128zM512 341.334c-47.040 0-85.333 38.272-85.333 85.333s38.293 85.333 85.333 85.333c47.040 0 85.333-38.272 85.333-85.333s-38.293-85.333-85.333-85.333zM768 426.667c0 15.313-1.502 30.959-4.459 46.669l123.665 71.437-85.333 147.793-123.627-71.377c-23.876 20.335-51.375 36.228-80.917 46.669v142.81h-170.667v-142.814c-29.542-10.436-57.041-26.334-80.917-46.669l-123.626 71.377-85.333-147.793 123.665-71.437c-2.948-15.706-4.45-31.351-4.45-46.665s1.502-30.959 4.459-46.669l-123.665-71.437 85.333-147.793 123.627 71.377c23.876-20.335 51.375-36.228 80.917-46.669v-142.81h170.667v142.814c29.542 10.436 57.041 26.334 80.917 46.669l123.627-71.377 85.333 147.793-123.665 71.437c2.948 15.706 4.45 31.351 4.45 46.665zM828.958 292.937l-42.667-73.873-114.167 65.894-11.584-11.23c-25.25-24.542-56.499-42.564-90.334-52.147l-15.539-4.395v-131.853h-85.333v131.853l-15.543 4.395c-33.835 9.583-65.084 27.605-90.334 52.147l-11.584 11.23-114.167-65.894-42.667 73.873 114.249 65.98-3.917 15.625c-4.454 17.626-6.703 35.166-6.703 52.126s2.249 34.5 6.707 52.126l3.916 15.625-114.248 65.98 42.667 73.873 114.167-65.894 11.584 11.23c25.25 24.542 56.499 42.564 90.334 52.147l15.539 4.395v131.853h85.333v-131.853l15.543-4.395c33.835-9.583 65.084-27.605 90.334-52.147l11.584-11.23 114.167 65.894 42.667-73.873-114.249-65.98 3.917-15.625c4.454-17.626 6.703-35.166 6.703-52.126s-2.249-34.5-6.707-52.126l-3.917-15.625 114.249-65.98z" />
<glyph unicode="&#xe907;" glyph-name="icon_8_search" d="M888.666 80.145l-200.124 200.162c49.314 56.311 79.458 129.801 79.458 210.359 0 176.457-143.543 320-320 320s-320-143.543-320-320c0-176.457 143.543-320 320-320 80.567 0 154.065 30.153 210.381 79.471l200.119-200.158 30.165 30.165zM448 213.334c-152.917 0-277.333 124.416-277.333 277.333s124.416 277.333 277.333 277.333c152.917 0 277.333-124.416 277.333-277.333s-124.416-277.333-277.333-277.333z" />
<glyph unicode="&#xe908;" glyph-name="icon_9_zoom_in" d="M473.583 640h-51.166v-123.729h-123.75v-51.209h123.75v-123.729h51.166v123.729h123.75v51.209h-123.75v123.729zM888.666 80.145l-200.124 200.162c49.314 56.311 79.458 129.801 79.458 210.359 0 176.457-143.543 320-320 320s-320-143.543-320-320c0-176.457 143.543-320 320-320 80.567 0 154.065 30.153 210.381 79.471l200.119-200.158 30.165 30.165zM448 213.334c-152.917 0-277.333 124.416-277.333 277.333s124.416 277.333 277.333 277.333c152.917 0 277.333-124.416 277.333-277.333s-124.416-277.333-277.333-277.333z" />
<glyph unicode="&#xe909;" glyph-name="icon_10_zoon_out" d="M597.333 516.271h-298.667v-51.209h298.667v51.209zM888.666 80.145l-200.124 200.162c49.314 56.311 79.458 129.801 79.458 210.359 0 176.457-143.543 320-320 320s-320-143.543-320-320c0-176.457 143.543-320 320-320 80.567 0 154.065 30.153 210.381 79.471l200.119-200.158 30.165 30.165zM448 213.334c-152.917 0-277.333 124.416-277.333 277.333s124.416 277.333 277.333 277.333c152.917 0 277.333-124.416 277.333-277.333s-124.416-277.333-277.333-277.333z" />
<glyph unicode="&#xe90a;" glyph-name="icon_11_user" d="M512 469.334c94.106 0 170.667 76.561 170.667 170.667s-76.561 170.667-170.667 170.667c-94.106 0-170.667-76.561-170.667-170.667s76.561-170.667 170.667-170.667zM512 768c70.583 0 128-57.417 128-128s-57.417-128-128-128c-70.583 0-128 57.417-128 128s57.417 128 128 128zM512 426.667c-188.207 0-341.333-153.126-341.333-341.333h42.667c0 164.689 133.978 298.667 298.667 298.667s298.667-133.978 298.667-298.667h42.667c0 188.207-153.126 341.333-341.333 341.333z" />
<glyph unicode="&#xe90b;" glyph-name="icon_12_alarm" d="M853.333 213.334h-85.333v234.667c0 130.859-91.217 240.572-213.333 269.581v29.086c0 35.29-28.71 64-64 64s-64-28.71-64-64v-29.086c-122.116-29.009-213.333-138.722-213.333-269.581v-234.667h-85.333v-42.667h256v-64c0-35.29 28.71-64 64-64h85.333c35.29 0 64 28.71 64 64v64h256v42.667zM469.333 746.667c0 11.772 9.562 21.333 21.333 21.333s21.333-9.562 21.333-21.333v-22.413c-7.066 0.542-14.131 1.079-21.333 1.079s-14.268-0.538-21.333-1.079v22.413zM256 448c0 129.395 105.271 234.667 234.667 234.667s234.667-105.271 234.667-234.667v-234.667h-469.333v234.667zM554.667 106.667c0-11.772-9.562-21.333-21.333-21.333h-85.333c-11.772 0-21.333 9.562-21.333 21.333v64h128v-64z" />
<glyph unicode="&#xe90c;" glyph-name="icon_13_reload" d="M810.667 426.667c0-164.689-133.999-298.667-298.667-298.667-47.876 0-94.643 12.053-136.806 33.86l94.14 94.14h-213.333v-213.333l87.509 87.509c51.196-29.146 109.201-44.843 168.491-44.843 188.207 0 341.333 153.126 341.333 341.333h-42.667zM512 725.334c47.821 0 94.694-11.994 136.879-33.788l-94.212-94.212h213.333v213.333l-87.313-87.313c-51.191 29.137-109.444 44.646-168.687 44.646-188.207 0-341.333-153.126-341.333-341.333h42.667c0 164.689 133.999 298.667 298.667 298.667z" />
<glyph unicode="&#xe90d;" glyph-name="icon_14_refresh" d="M810.667 426.667c0-164.689-133.999-298.667-298.667-298.667s-298.667 133.978-298.667 298.667c0 164.689 133.999 298.667 298.667 298.667 48.149 0 94.716-11.925 136.887-33.779l-94.221-94.221h213.333v213.333l-87.919-87.919c-51.226 29.116-108.553 45.252-168.081 45.252-188.207 0-341.333-153.126-341.333-341.333s153.126-341.333 341.333-341.333c188.207 0 341.333 153.126 341.333 341.333h-42.667z" />
<glyph unicode="&#xe90e;" glyph-name="icon_15_restore" d="M512 768c-59.529 0-116.856-16.137-168.081-45.252l-87.919 87.919v-213.333h213.333l-94.221 94.221c42.172 21.854 88.738 33.779 136.887 33.779 164.668 0 298.667-133.978 298.667-298.667s-133.999-298.667-298.667-298.667c-164.668 0-298.667 133.978-298.667 298.667h-42.667c0-188.207 153.126-341.333 341.333-341.333s341.333 153.126 341.333 341.333c0 188.207-153.126 341.333-341.333 341.333z" />
<glyph unicode="&#xe90f;" glyph-name="icon_16_circle_minus" d="M490.667 810.667c-199.957 0-362.667-162.688-362.667-362.667s162.709-362.667 362.667-362.667c199.957 0 362.667 162.688 362.667 362.667s-162.709 362.667-362.667 362.667zM490.667 128c-176.457 0-320 143.543-320 320s143.543 320 320 320c176.457 0 320-143.543 320-320s-143.543-320-320-320zM682.667 473.605h-384v-51.209h384v51.209z" />
<glyph unicode="&#xe910;" glyph-name="icon_17_circle_plus" d="M490.667 810.667c-199.957 0-362.667-162.688-362.667-362.667s162.709-362.667 362.667-362.667c199.957 0 362.667 162.688 362.667 362.667s-162.709 362.667-362.667 362.667zM490.667 128c-176.457 0-320 143.543-320 320s143.543 320 320 320c176.457 0 320-143.543 320-320s-143.543-320-320-320zM516.25 640h-51.166v-166.396h-166.417v-51.209h166.417v-166.396h51.166v166.396h166.417v51.209h-166.417v166.396z" />
<glyph unicode="&#xe911;" glyph-name="icon_18_circle_x" d="M490.667 810.667c-199.957 0-362.667-162.688-362.667-362.667s162.709-362.667 362.667-362.667c199.957 0 362.667 162.688 362.667 362.667s-162.709 362.667-362.667 362.667zM490.667 128c-176.457 0-320 143.543-320 320s143.543 320 320 320c176.457 0 320-143.543 320-320s-143.543-320-320-320zM608.333 601.873l-117.666-117.682-117.667 117.682-36.168-36.207 117.649-117.666-117.649-117.666 36.168-36.207 117.667 117.683 117.666-117.683 36.169 36.207-117.649 117.666 117.649 117.666-36.169 36.207z" />
<glyph unicode="&#xe912;" glyph-name="icon_19_clock" d="M516.25 640h-51.166v-256h4.25v-4.271h256v51.209h-209.084v209.062zM512 810.667c-211.75 0-384-172.271-384-384s172.25-384 384-384c211.75 0 384 172.271 384 384s-172.25 384-384 384zM512 85.334c-188.207 0-341.333 153.126-341.333 341.333s153.126 341.333 341.333 341.333c188.207 0 341.333-153.126 341.333-341.333s-153.126-341.333-341.333-341.333z" />
<glyph unicode="&#xe913;" glyph-name="icon_20_question" d="M512 810.667c-211.75 0-384-172.271-384-384s172.25-384 384-384c211.75 0 384 172.271 384 384s-172.25 384-384 384zM512 85.334c-188.207 0-341.333 153.126-341.333 341.333s153.126 341.333 341.333 341.333c188.207 0 341.333-153.126 341.333-341.333s-153.126-341.333-341.333-341.333zM544.158 258.245h-64v-64h64v64zM512.623 659.042c-42.18 0-76.109-11.324-101.773-33.975-25.66-22.647-41.093-55.275-46.285-97.873l57.664-6.857c4.988 31.795 15.484 55.172 31.484 70.131 16.004 14.963 35.951 22.443 59.844 22.443 24.73 0 45.615-8.26 62.652-24.777 17.041-16.521 25.562-35.691 25.562-57.51 0-12.053-2.91-23.168-8.73-33.352-5.82-10.18-18.445-23.846-37.871-40.99-19.43-17.143-32.887-30.182-40.367-39.117-10.18-12.262-17.557-24.418-22.131-36.471-6.234-16-9.353-35.012-9.353-57.041 0-3.742 0.102-9.353 0.311-16.832h53.926c0.414 22.443 1.975 38.652 4.676 48.623 2.705 9.975 6.861 18.807 12.467 26.496 5.611 7.689 17.562 19.639 35.844 35.844 27.221 24.102 45.508 44.574 54.861 61.406s14.025 35.221 14.025 55.168c0 34.496-13.299 63.902-39.898 88.213s-62.234 36.471-106.91 36.471z" />
<glyph unicode="&#xe914;" glyph-name="icon_21_info" d="M512 810.667c-211.729 0-384-172.271-384-384s172.271-384 384-384c211.729 0 384 172.271 384 384s-172.271 384-384 384zM512 85.334c-188.207 0-341.333 153.126-341.333 341.333s153.126 341.333 341.333 341.333c188.207 0 341.333-153.126 341.333-341.333s-153.126-341.333-341.333-341.333zM554.667 640h-85.333v-85.333h85.333v85.333zM554.667 512h-85.333v-298.667h85.333v298.667z" />
<glyph unicode="&#xe915;" glyph-name="icon_22_important" d="M512 810.667c-211.729 0-384-172.271-384-384s172.271-384 384-384c211.729 0 384 172.271 384 384s-172.271 384-384 384zM512 85.334c-188.207 0-341.333 153.126-341.333 341.333s153.126 341.333 341.333 341.333c188.207 0 341.333-153.126 341.333-341.333s-153.126-341.333-341.333-341.333zM554.667 640h-85.333v-298.667h85.333v298.667zM554.667 298.667h-85.333v-85.333h85.333v85.333z" />
<glyph unicode="&#xe916;" glyph-name="icon_23_caution" d="M898.5 180.335l-330.5 597.355c-11.46 20.668-32.375 33.020-56 33.020s-44.54-12.357-56-33.020l-330.5-597.397c-11.085-20.041-10.752-43.793 0.917-63.501 11.627-19.708 32.209-31.458 55.083-31.458h661.001c22.874 0 43.46 11.75 55.083 31.458 11.665 19.708 12.002 43.46 0.917 63.543zM860.877 138.501c-1.877-3.166-7.377-10.5-18.377-10.5h-661.001c-10.999 0-16.499 7.334-18.377 10.5-1.835 3.123-5.623 11.541-0.29 21.167l330.5 597.355c5.5 9.937 14.874 11.021 18.667 11.021s13.167-1.084 18.667-11.021l330.5-597.312c5.333-9.668 1.54-18.086-0.29-21.21zM554.667 554.667h-85.333v-213.333h85.333v213.333zM554.667 298.667h-85.333v-85.333h85.333v85.333z" />
<glyph unicode="&#xe917;" glyph-name="icon_24_notice" d="M789.333 725.334h-554.667c-58.833 0-106.667-47.855-106.667-106.667v-298.667c0-58.812 47.834-106.667 106.667-106.667h234.667v42.667h-234.667c-35.29 0-64 28.71-64 64v298.667c0 35.29 28.71 64 64 64h554.667c35.29 0 64-28.71 64-64v-298.667c0-35.29-28.71-64-64-64h-118.498l-112.917-180.71 36.169-22.583 100.412 160.627h94.835c58.833 0 106.667 47.855 106.667 106.667v298.667c0 58.812-47.834 106.667-106.667 106.667zM554.667 640h-85.333v-213.333h85.333v213.333zM554.667 384h-85.333v-85.333h85.333v85.333z" />
<glyph unicode="&#xe918;" glyph-name="icon_25_message" d="M789.333 725.334h-554.667c-58.833 0-106.667-47.855-106.667-106.667v-298.667c0-58.812 47.834-106.667 106.667-106.667h234.667v42.667h-234.667c-35.29 0-64 28.71-64 64v298.667c0 35.29 28.71 64 64 64h554.667c35.29 0 64-28.71 64-64v-298.667c0-35.29-28.71-64-64-64h-118.498l-112.917-180.71 36.169-22.583 100.412 160.627h94.835c58.833 0 106.667 47.855 106.667 106.667v298.667c0 58.812-47.834 106.667-106.667 106.667zM725.333 554.667h-426.667v-42.667h426.667v42.667zM554.667 426.667h-256v-42.667h256v42.667z" />
<glyph unicode="&#xe919;" glyph-name="icon_26_email" d="M746.667 725.334h-469.333c-58.833 0-106.667-47.855-106.667-106.667v-341.333c0-58.812 47.834-106.667 106.667-106.667h469.333c58.833 0 106.667 47.855 106.667 106.667v341.333c0 58.812-47.834 106.667-106.667 106.667zM746.667 682.667c8.939 0 17.442-1.869 25.178-5.193l-259.844-222.703-259.844 222.703c7.735 3.324 16.239 5.193 25.178 5.193h469.333zM810.667 277.334c0-35.29-28.71-64-64-64h-469.333c-35.29 0-64 28.71-64 64v341.333c0 10.684 2.88 20.604 7.527 29.466l291.14-249.57 291.14 249.57c4.646-8.862 7.526-18.782 7.526-29.466v-341.333z" />
<glyph unicode="&#xe91a;" glyph-name="icon_27_calendar" d="M746.667 725.334h-64v85.333h-42.667v-85.333h-256v85.333h-42.667v-85.333h-64c-58.833 0-106.667-47.855-106.667-106.667v-384c0-58.833 47.834-106.667 106.667-106.667h469.333c58.833 0 106.667 47.834 106.667 106.667v384c0 58.812-47.834 106.667-106.667 106.667zM277.333 682.667h64v-85.333h42.667v85.333h256v-85.333h42.667v85.333h64c35.29 0 64-28.71 64-64v-64h-597.333v64c0 35.29 28.71 64 64 64zM746.667 170.667h-469.333c-35.29 0-64 28.71-64 64v277.333h597.333v-277.333c0-35.29-28.71-64-64-64z" />
<glyph unicode="&#xe91b;" glyph-name="icon_28_camera" d="M789.333 640h-52.582l-85.333 128h-278.836l-85.333-128h-52.582c-58.833 0-106.667-47.855-106.667-106.667v-341.333c0-58.833 47.834-106.667 106.667-106.667h554.667c58.833 0 106.667 47.834 106.667 106.667v341.333c0 58.812-47.834 106.667-106.667 106.667zM853.333 192c0-35.29-28.71-64-64-64h-554.667c-35.29 0-64 28.71-64 64v341.333c0 35.29 28.71 64 64 64h75.418l85.333 128h233.164l85.333-128h75.418c35.29 0 64-28.71 64-64v-341.333zM512 554.667c-94.127 0-170.667-76.561-170.667-170.667s76.54-170.667 170.667-170.667c94.127 0 170.667 76.561 170.667 170.667s-76.54 170.667-170.667 170.667zM512 256c-70.583 0-128 57.417-128 128s57.417 128 128 128c70.583 0 128-57.417 128-128s-57.417-128-128-128z" />
<glyph unicode="&#xe91c;" glyph-name="icon_29_picture" d="M746.667 768h-469.333c-58.833 0-106.667-47.855-106.667-106.667v-348.25l-1.374-1.894 1.374-0.998v-118.191c0-58.833 47.834-106.667 106.667-106.667h469.333c58.833 0 106.667 47.834 106.667 106.667v469.333c0 58.812-47.834 106.667-106.667 106.667zM213.333 661.334c0 35.29 28.71 64 64 64h469.333c35.29 0 64-28.71 64-64v-407.177l-125.999 162.010-128.585-128.563-215.915 259.123-126.835-174.831v289.438zM746.667 128h-469.333c-35.29 0-64 28.71-64 64v107.294l129.165 177.975 210.752-252.877 127.415 127.437 129.348-166.293c-3.294-32.222-30.268-57.536-63.347-57.536zM640 469.334c47.040 0 85.333 38.272 85.333 85.333s-38.293 85.333-85.333 85.333c-47.040 0-85.333-38.272-85.333-85.333s38.293-85.333 85.333-85.333zM640 597.334c23.543 0 42.667-19.145 42.667-42.667s-19.123-42.667-42.667-42.667c-23.543 0-42.667 19.145-42.667 42.667s19.123 42.667 42.667 42.667z" />
<glyph unicode="&#xe91d;" glyph-name="icon_30_save" d="M691.499 768h-456.832c-35.29 0-64-28.71-64-64v-554.667c0-35.29 28.71-64 64-64h554.667c35.29 0 64 28.71 64 64v456.832l-161.835 161.835zM341.333 725.334h213.333v-128h-213.333v128zM682.667 128h-341.333v298.667h341.333v-298.667zM810.667 149.334c0-11.75-9.583-21.333-21.333-21.333h-64v341.333h-426.667v-341.333h-64c-11.75 0-21.333 9.583-21.333 21.333v554.667c0 11.772 9.583 21.333 21.333 21.333h64v-170.667h298.667v170.667h76.501l136.832-136.832v-439.168z" />
<glyph unicode="&#xe91e;" glyph-name="icon_31_folder" d="M746.667 640h-244.582l-53.666 80.499c-19.836 29.751-53.001 47.501-88.751 47.501h-125.001c-58.812 0-106.667-47.834-106.667-106.667v-469.333c0-58.833 47.855-106.667 106.667-106.667h512c58.812 0 106.667 47.834 106.667 106.667v341.333c0 58.833-47.855 106.667-106.667 106.667zM810.667 192c0-35.29-28.71-64-64-64h-512c-35.29 0-64 28.71-64 64v469.333c0 35.29 28.71 64 64 64h125.001c21.436 0 41.353-10.667 53.248-28.501l66.334-99.499h267.418c35.29 0 64-28.71 64-64v-341.333z" />
<glyph unicode="&#xe91f;" glyph-name="icon_32_folder_open" d="M895.748 515.627c-11.763 14.34-26.991 24.64-43.78 31.206-6.716 52.407-51.089 93.167-105.301 93.167h-244.582l-53.666 80.499c-19.836 29.751-53.001 47.501-88.751 47.501h-125.001c-58.812 0-106.667-47.834-106.667-106.667v-469.333c0-58.833 47.855-106.667 106.667-106.667h527.377c50.667 0 94.669 36.041 104.585 85.751l51.209 255.957c6.289 31.501-1.754 63.748-22.089 88.585zM234.667 725.334h125.001c21.436 0 41.353-10.667 53.248-28.501l66.334-99.499h267.418c27.776 0 51.234-17.89 60.070-42.667h-502.114c-50.667 0-94.669-36.041-104.606-85.751l-29.35-146.807v339.226c0 35.29 28.71 64 64 64zM875.998 435.418l-51.209-256c-5.956-29.794-32.333-51.418-62.746-51.418h-508.625c-19.251 0-37.269 8.542-49.481 23.415s-17.041 34.249-13.269 53.167l51.187 256c5.956 29.794 32.354 51.418 62.767 51.418h508.625c19.251 0 37.291-8.542 49.502-23.415 12.207-14.916 17.041-34.253 13.248-53.167z" />
<glyph unicode="&#xe920;" glyph-name="icon_33_folder_plus" d="M746.667 640h-244.582l-53.666 80.499c-19.831 29.751-53.001 47.501-88.751 47.501h-125.001c-58.833 0-106.667-47.834-106.667-106.667v-469.333c0-58.833 47.834-106.667 106.667-106.667h512c58.833 0 106.667 47.834 106.667 106.667v341.333c0 58.833-47.834 106.667-106.667 106.667zM810.667 192c0-35.29-28.71-64-64-64h-512c-35.29 0-64 28.71-64 64v469.333c0 35.29 28.71 64 64 64h125.001c21.457 0 41.335-10.667 53.248-28.501l66.334-99.499h267.418c35.29 0 64-28.71 64-64v-341.333zM516.25 512h-51.166v-123.75h-123.75v-51.166h123.75v-123.75h51.166v123.75h123.75v51.166h-123.75v123.75z" />
<glyph unicode="&#xe921;" glyph-name="icon_34_file" d="M606.165 810.667h-328.832c-58.833 0-106.667-47.834-106.667-106.667v-512c0-58.833 47.834-106.667 106.667-106.667h426.667c58.833 0 106.667 47.834 106.667 106.667v414.165l-204.501 204.501zM597.333 759.168l161.835-161.835h-97.835c-35.29 0-64 28.71-64 64v97.835zM704 128h-426.667c-35.29 0-64 28.71-64 64v512c0 35.29 28.71 64 64 64h277.333v-106.667c0-58.833 47.834-106.667 106.667-106.667h106.667v-362.667c0-35.29-28.71-64-64-64z" />
<glyph unicode="&#xe922;" glyph-name="icon_35_file_plus" d="M606.165 810.667h-328.832c-58.833 0-106.667-47.834-106.667-106.667v-512c0-58.833 47.834-106.667 106.667-106.667h426.667c58.833 0 106.667 47.834 106.667 106.667v414.165l-204.501 204.501zM597.333 759.168l161.835-161.835h-97.835c-35.29 0-64 28.71-64 64v97.835zM704 128h-426.667c-35.29 0-64 28.71-64 64v512c0 35.29 28.71 64 64 64h277.333v-106.667c0-58.833 47.834-106.667 106.667-106.667h106.667v-362.667c0-35.29-28.71-64-64-64zM516.25 512h-51.166v-123.75h-123.75v-51.166h123.75v-123.75h51.166v123.75h123.75v51.166h-123.75v123.75z" />
<glyph unicode="&#xe923;" glyph-name="icon_36_file_replace" d="M382.46 484.126l57.455-57.459h-205.248c-35.29 0-64-28.71-64-64v-106.667h42.667v106.667c0 11.75 9.583 21.333 21.333 21.333h205.248l-57.459-57.459 30.165-30.165 108.957 108.958-108.957 108.958-30.161-30.166zM469.333 149.334c0-11.75-9.583-21.333-21.333-21.333h-205.248l57.459 57.459-30.165 30.165-108.958-108.958 108.958-108.958 30.165 30.165-57.459 57.459h205.248c35.29 0 64 28.71 64 64v106.667h-42.667v-106.667zM606.165 810.667h-328.832c-58.833 0-106.667-47.834-106.667-106.667v-192h42.667v192c0 35.29 28.71 64 64 64h277.333v-106.667c0-58.833 47.834-106.667 106.667-106.667h106.667v-362.667c0-35.29-28.71-64-64-64h-106.667v-42.667h106.667c58.833 0 106.667 47.834 106.667 106.667v414.165l-204.501 204.501zM597.333 661.334v97.835l161.835-161.835h-97.835c-35.29 0-64 28.71-64 64z" />
<glyph unicode="&#xe924;" glyph-name="icon_37_file_down" d="M606.165 810.667h-328.832c-58.833 0-106.667-47.834-106.667-106.667v-512c0-58.833 47.834-106.667 106.667-106.667h426.667c58.833 0 106.667 47.834 106.667 106.667v414.165l-204.501 204.501zM597.333 759.168l161.835-161.835h-97.835c-35.29 0-64 28.71-64 64v97.835zM704 128h-426.667c-35.29 0-64 28.71-64 64v512c0 35.29 28.71 64 64 64h277.333v-106.667c0-58.833 47.834-106.667 106.667-106.667h106.667v-362.667c0-35.29-28.71-64-64-64zM512 297.374v214.626h-42.667v-214.626l-69.167 69.167-30.165-30.165 120.665-120.666 120.666 120.666-30.165 30.165-69.167-69.167z" />
<glyph unicode="&#xe925;" glyph-name="icon_38_file_up" d="M606.165 810.667h-328.832c-58.833 0-106.667-47.834-106.667-106.667v-512c0-58.833 47.834-106.667 106.667-106.667h426.667c58.833 0 106.667 47.834 106.667 106.667v414.165l-204.501 204.501zM597.333 759.168l161.835-161.835h-97.835c-35.29 0-64 28.71-64 64v97.835zM704 128h-426.667c-35.29 0-64 28.71-64 64v512c0 35.29 28.71 64 64 64h277.333v-106.667c0-58.833 47.834-106.667 106.667-106.667h106.667v-362.667c0-35.29-28.71-64-64-64zM370.001 388.958l30.165-30.165 69.167 69.167v-214.626h42.667v214.626l69.167-69.167 30.165 30.165-120.666 120.666-120.665-120.666z" />
<glyph unicode="&#xe926;" glyph-name="icon_39_copy" d="M640 341.334h-213.333v-42.667h213.333v42.667zM640 469.334h-213.333v-42.667h213.333v42.667zM606.165 810.667h-243.499c-52.198 0-95.552-37.709-104.708-87.292-49.583-9.156-87.292-52.51-87.292-104.708v-469.333c0-58.833 47.834-106.667 106.667-106.667h341.333c52.198 0 95.552 37.709 104.708 87.292 49.583 9.156 87.292 52.51 87.292 104.708v371.499l-204.501 204.501zM597.333 759.168l161.835-161.835h-97.835c-35.29 0-64 28.71-64 64v97.835zM618.667 85.334h-341.333c-35.29 0-64 28.71-64 64v469.333c0 27.776 17.89 51.234 42.667 60.070v-444.070c0-58.833 47.834-106.667 106.667-106.667h316.070c-8.836-24.777-32.294-42.667-60.070-42.667zM704 170.667h-341.333c-35.29 0-64 28.71-64 64v469.333c0 35.29 28.71 64 64 64h192v-106.667c0-58.833 47.834-106.667 106.667-106.667h106.667v-320c0-35.29-28.71-64-64-64z" />
<glyph unicode="&#xe927;" glyph-name="icon_40_upload" d="M724.459 553.583c-10.291 119.957-111.211 214.417-233.792 214.417s-223.5-94.46-233.792-214.417c-96.29-10.249-171.542-91.959-171.542-190.916 0-105.873 86.127-192 192-192h64v42.667h-64c-82.334 0-149.333 66.999-149.333 149.333s66.999 149.333 149.333 149.333h21.333v21.333c0 105.873 86.127 192 192 192s192-86.127 192-192v-21.333h21.333c82.334 0 149.333-66.999 149.333-149.333s-66.999-149.333-149.333-149.333h-64v-42.667h64c105.873 0 192 86.127 192 192 0 98.957-75.251 180.668-171.541 190.916zM370.001 346.292l30.165-30.165 69.167 69.167v-257.293h42.667v257.293l69.167-69.167 30.165 30.165-120.666 120.666-120.665-120.666z" />
<glyph unicode="&#xe928;" glyph-name="icon_41_download" d="M810.667 341.334v-170.667h-640v170.667h-42.667v-213.333h725.333v213.333h-42.667zM716.915 494.75l-30.165 30.165-174.75-174.75v417.835h-42.667v-417.835l-174.75 174.75-30.165-30.165 226.249-226.249 226.249 226.249z" />
<glyph unicode="&#xe929;" glyph-name="icon_42_fit" d="M170.667 661.334v-149.333h42.667v149.333c0 35.29 28.71 64 64 64h149.333v42.667h-149.333c-58.812 0-106.667-47.834-106.667-106.667zM746.667 768h-149.333v-42.667h149.333c35.29 0 64-28.71 64-64v-149.333h42.667v149.333c0 58.833-47.834 106.667-106.667 106.667zM810.667 192c0-35.29-28.71-64-64-64h-149.333v-42.667h149.333c58.833 0 106.667 47.834 106.667 106.667v149.333h-42.667v-149.333zM213.333 192v149.333h-42.667v-149.333c0-58.833 47.855-106.667 106.667-106.667h149.333v42.667h-149.333c-35.29 0-64 28.71-64 64z" />
<glyph unicode="&#xe92a;" glyph-name="icon_43_expand" d="M362.667 725.334v42.667h-192v-192h42.667v119.168l197.167-197.167 30.165 30.166-197.167 197.167h119.168zM213.333 723.166v2.167h2.167l-2.167-2.167zM661.333 768v-42.667h119.168l-197.167-197.167 30.165-30.166 197.167 197.167v-119.168h42.667v192h-192zM808.499 725.334h2.167v-2.167l-2.167 2.167zM810.667 158.166l-197.167 197.167-30.165-30.165 197.167-197.167h-119.168v-42.667h192v192h-42.667v-119.168zM808.499 128l2.167 2.167v-2.167h-2.167zM410.5 355.333l-197.167-197.167v119.168h-42.667v-192h192v42.667h-119.168l197.167 197.167-30.165 30.165zM213.333 128v2.167l2.167-2.167h-2.167z" />
<glyph unicode="&#xe92b;" glyph-name="icon_44_newtab" d="M810.667 192c0-35.29-28.71-64-64-64h-469.333c-35.29 0-64 28.71-64 64v469.333c0 35.29 28.71 64 64 64h106.667v42.667h-106.667c-58.833 0-106.667-47.834-106.667-106.667v-469.333c0-58.833 47.834-106.667 106.667-106.667h469.333c58.833 0 106.667 47.834 106.667 106.667v106.667h-42.667v-106.667zM554.667 768v-42.667h225.835l-283.584-283.584 30.165-30.165 283.584 283.584v-225.835h42.667v298.667h-298.667zM808.499 725.334h2.167v-2.167l-2.167 2.167z" />
<glyph unicode="&#xe92c;" glyph-name="icon_45_ckeckbox" d="M810.667 384v-192c0-35.29-28.71-64-64-64h-469.333c-35.29 0-64 28.71-64 64v469.333c0 35.29 28.71 64 64 64h192v42.667h-192c-58.833 0-106.667-47.834-106.667-106.667v-469.333c0-58.833 47.834-106.667 106.667-106.667h469.333c58.833 0 106.667 47.834 106.667 106.667v192h-42.667zM424.375 538.834l150.874-150.874 301.709 301.708-30.165 30.165-271.543-271.543-120.708 120.709-30.166-30.165z" />
<glyph unicode="&#xe92d;" glyph-name="icon_46_add" d="M810.667 192c0-35.29-28.71-64-64-64h-469.333c-35.29 0-64 28.71-64 64v469.333c0 35.29 28.71 64 64 64h192v42.667h-192c-58.833 0-106.667-47.834-106.667-106.667v-469.333c0-58.833 47.834-106.667 106.667-106.667h469.333c58.833 0 106.667 47.834 106.667 106.667v192h-42.667v-192zM682.667 597.334v170.667h-42.667v-170.667h-170.667v-42.667h170.667v-170.667h42.667v170.667h170.667v42.667h-170.667z" />
<glyph unicode="&#xe92e;" glyph-name="icon_47_edit" d="M810.667 384v-192c0-35.29-28.71-64-64-64h-469.333c-35.29 0-64 28.71-64 64v469.333c0 35.29 28.71 64 64 64h192v42.667h-192c-58.833 0-106.667-47.834-106.667-106.667v-469.333c0-58.833 47.834-106.667 106.667-106.667h469.333c58.833 0 106.667 47.834 106.667 106.667v192h-42.667zM341.333 256h150.835l395.874 395.875-150.835 150.835-395.874-395.875v-150.835zM384 389.167l353.207 353.207 90.5-90.5-353.207-353.208h-90.5v90.5z" />
<glyph unicode="&#xe92f;" glyph-name="icon_48_write" d="M717.376 566.542l-150.835 150.835-353.207-353.208v-150.835h150.835l353.208 353.208zM256 256v90.5l310.541 310.541 90.5-90.5-310.541-310.541h-90.5zM792.794 641.959c24.96 24.96 24.96 65.541 0 90.501l-60.335 60.335c-24.917 24.917-65.583 24.917-90.5 0l-45.248-45.248 150.835-150.835 45.248 45.248zM672.124 762.624c8.333 8.333 21.833 8.333 30.165 0l60.335-60.335c8.333-8.333 8.333-21.833 0-30.165l-15.083-15.083-90.5 90.5 15.083 15.083zM853.333 128h-682.667v-42.667h682.667v42.667z" />
<glyph unicode="&#xe930;" glyph-name="icon_49_pencil" d="M855.748 679.877l-90.543 90.543-60.318-60.348-30.182 30.182-504.038-504.085v-150.835h150.835l504.086 504.043-30.182 30.182 60.343 60.318zM765.21 710.084l30.208-30.208-30.178-30.152-30.182 30.182 30.153 30.178zM303.833 128h-90.5v90.5l461.376 461.418 90.543-90.542-461.419-461.376zM492.151 680.255l-217.227-217.227 30.167-30.165 217.225 217.226-30.165 30.167z" />
<glyph unicode="&#xe931;" glyph-name="icon_50_eraser" d="M853.333 128h-682.667v-42.667h682.667v42.667zM339.793 170.667h168.542l335.543 335.501c12.083 12.083 18.752 28.207 18.752 45.291 0 17.126-6.665 33.165-18.752 45.21l-198.707 198.707c-24.917 24.917-65.583 24.917-90.5 0l-374.541-374.541c-24.96-24.96-24.96-65.54 0-90.5l159.663-159.667zM584.832 765.21c8.333 8.333 21.833 8.333 30.165 0l198.707-198.707c4.041-4.041 6.251-9.374 6.251-15.040 0-5.709-2.21-11.084-6.251-15.125l-135.757-135.744-228.868 228.869 135.753 135.748zM210.292 390.665l208.623 208.623 228.864-228.864-157.111-157.090h-133.21l-147.165 147.166c-4.041 4.041-6.252 9.374-6.252 15.083s2.211 11.042 6.252 15.083z" />
<glyph unicode="&#xe932;" glyph-name="icon_51_trash" d="M640 810.667h-256v-42.667h256v42.667zM853.333 725.334h-682.667v-42.667h86.814l35.584-498.249c3.959-55.582 50.688-99.085 106.398-99.085h225.084c55.71 0 102.438 43.499 106.398 99.085l35.575 498.249h86.814v42.667zM688.397 187.418c-2.398-33.293-30.438-59.418-63.855-59.418h-225.084c-33.417 0-61.457 26.125-63.855 59.418l-35.371 495.249h423.531l-35.366-495.249zM469.333 512h-42.667v-213.333h42.667v213.333zM597.333 512h-42.667v-213.333h42.667v213.333z" />
<glyph unicode="&#xe933;" glyph-name="icon_52_guide" d="M746.667 810.667h-426.667c-58.812 0-106.667-47.834-106.667-106.667v-426.667c0-58.833 47.855-106.667 106.667-106.667h426.667c58.833 0 106.667 47.834 106.667 106.667v426.667c0 58.833-47.834 106.667-106.667 106.667zM810.667 277.334c0-35.29-28.71-64-64-64h-426.667c-35.29 0-64 28.71-64 64v426.667c0 35.29 28.71 64 64 64h426.667c35.29 0 64-28.71 64-64v-426.667zM170.667 192v512h-42.667v-512c0-58.833 47.855-106.667 106.667-106.667h512v42.667h-512c-35.29 0-64 28.71-64 64zM562.854 348.881h-58.752v-58.752h58.752v58.752zM533.905 716.8c-38.724 0-69.867-10.398-93.423-31.189s-37.722-50.739-42.487-89.843l52.932-6.293c4.578 29.184 14.212 50.646 28.902 64.38 14.686 13.734 32.998 20.599 54.933 20.599 22.699 0 41.873-7.582 57.515-22.746s23.462-32.76 23.462-52.792c0-11.063-2.671-21.269-8.013-30.613s-16.93-21.892-34.765-37.628c-17.835-15.735-30.187-27.708-37.056-35.908-9.348-11.255-16.119-22.413-20.314-33.476-5.726-14.686-8.585-32.145-8.585-52.361 0-3.435 0.094-8.585 0.286-15.45h49.502c0.38 20.599 1.813 35.477 4.292 44.634s6.293 17.263 11.443 24.32c5.15 7.061 16.115 18.027 32.905 32.905 24.99 22.127 41.775 40.917 50.359 56.367s12.877 32.333 12.877 50.645c0 31.663-12.207 58.658-36.621 80.973-24.418 22.319-57.135 33.476-98.146 33.476z" />
<glyph unicode="&#xe934;" glyph-name="icon_53_cut" d="M789.333 682.667h-21.333v21.333c0 58.833-47.834 106.667-106.667 106.667h-64v-42.667h64c35.29 0 64-28.71 64-64v-21.333h-362.667c-58.833 0-106.667-47.834-106.667-106.667v-362.667h-21.333c-35.29 0-64 28.71-64 64v64h-42.667v-64c0-58.833 47.834-106.667 106.667-106.667h21.333v-21.333c0-58.833 47.834-106.667 106.667-106.667h426.667c58.833 0 106.667 47.834 106.667 106.667v426.667c0 58.833-47.834 106.667-106.667 106.667zM853.333 149.334c0-35.29-28.71-64-64-64h-426.667c-35.29 0-64 28.71-64 64v426.667c0 35.29 28.71 64 64 64h426.667c35.29 0 64-28.71 64-64v-426.667zM512 810.667h-170.667v-42.667h170.667v42.667zM170.667 704c0 35.29 28.71 64 64 64h21.333v42.667h-21.333c-58.833 0-106.667-47.834-106.667-106.667v-21.333h42.667v21.333zM170.667 597.334h-42.667v-170.667h42.667v170.667zM601.583 512h-51.166v-123.75h-123.75v-51.166h123.75v-123.75h51.166v123.75h123.75v51.166h-123.75v123.75z" />
<glyph unicode="&#xe935;" glyph-name="icon_54_save_change" d="M896 554.667v128h-128v-42.667h-384v42.667h-128v-128h42.667v-384h-42.667v-128h128v42.667h384v-42.667h128v128h-42.667v384h42.667zM810.667 640h42.667v-42.667h-42.667v42.667zM298.667 640h42.667v-42.667h-42.667v42.667zM341.333 85.334h-42.667v42.667h42.667v-42.667zM853.333 85.334h-42.667v42.667h42.667v-42.667zM810.667 170.667h-42.667v-42.667h-384v42.667h-42.667v384h42.667v42.667h384v-42.667h42.667v-384zM552.085 318.166l-90.5 90.5-30.17-30.165 120.67-120.666 211.166 211.209-30.17 30.165-180.996-181.043zM256 298.667h-85.333v85.333h-42.667v-128h128v42.667zM170.667 597.334h-42.667v-128h42.667v128zM170.667 768h85.333v42.667h-128v-128h42.667v85.333zM469.333 810.667h-128v-42.667h128v42.667zM640 682.667h42.667v128h-128v-42.667h85.333v-85.333z" />
<glyph unicode="&#xe936;" glyph-name="icon_55_license" d="M213.333 192v512c0 35.29 28.71 64 64 64h426.667c35.29 0 64-28.71 64-64v-149.333h42.667v149.333c0 58.833-47.834 106.667-106.667 106.667h-426.667c-58.833 0-106.667-47.834-106.667-106.667v-512c0-58.833 47.834-106.667 106.667-106.667h232.375v42.667h-232.375c-35.29 0-64 28.71-64 64zM853.333 341.334c0 94.127-76.54 170.667-170.667 170.667s-170.667-76.54-170.667-170.667c0-62.899 34.569-117.333 85.333-146.935v-151.731h42.667v134.059c13.717-3.567 27.844-6.059 42.667-6.059s28.949 2.492 42.667 6.059v-134.059h42.667v151.731c50.765 29.602 85.333 84.036 85.333 146.935zM682.667 213.334c-70.583 0-128 57.417-128 128s57.417 128 128 128c70.583 0 128-57.417 128-128s-57.417-128-128-128z" />
<glyph unicode="&#xe937;" glyph-name="icon_56_chart" d="M277.333 128c-35.29 0-64 28.71-64 64v576h-42.667v-576c0-58.833 47.834-106.667 106.667-106.667h576v42.667h-576zM512 384h-42.667v-170.667h42.667v170.667zM384 512h-42.667v-298.667h42.667v298.667zM768 554.667h-42.667v-341.333h42.667v341.333zM640 725.334h-42.667v-512h42.667v512z" />
<glyph unicode="&#xe938;" glyph-name="icon_57_trend_up" d="M213.333 192v576h-42.667v-576c0-58.833 47.834-106.667 106.667-106.667h576v42.667h-576c-35.29 0-64 28.71-64 64zM640 640v-42.667h140.501l-159.71-159.71-120.666 120.709-196.083-196.122 30.164-30.17 165.918 165.961 120.666-120.708 189.875 189.875v-140.501h42.667v213.333h-213.333z" />
<glyph unicode="&#xe939;" glyph-name="icon_58_trend_down" d="M213.333 192v576h-42.667v-576c0-58.833 47.834-106.667 106.667-106.667h576v42.667h-576c-35.29 0-64 28.71-64 64zM810.667 512v-140.501l-189.875 189.875-120.666-120.708-165.917 165.961-30.165-30.17 196.083-196.122 120.666 120.708 159.71-159.71h-140.501v-42.667h213.333v213.333h-42.667z" />
<glyph unicode="&#xe93a;" glyph-name="icon_59_security" d="M512 813.082l-298.667-146.458v-152.751c0-146.125 65.208-286.583 174.375-375.791l124.292-101.623 124.292 101.623c109.167 89.207 174.374 229.666 174.374 375.791v152.751l-298.667 146.458zM768 513.873c0-133.419-59.332-261.585-158.707-342.793l-97.293-79.539-97.293 79.543c-99.375 81.207-158.707 209.374-158.707 342.793v126.165l256 125.542 256-125.542v-126.17z" />
<glyph unicode="&#xe93b;" glyph-name="icon_60_shield" d="M512 813.082l-298.667-146.458v-152.751c0-146.125 65.208-286.583 174.375-375.791l124.292-101.623 124.292 101.623c109.167 89.207 174.374 229.666 174.374 375.791v152.751l-298.667 146.458zM768 513.873c0-133.419-59.332-261.585-158.707-342.793l-97.293-79.539-97.293 79.543c-99.375 81.207-158.707 209.374-158.707 342.793v126.165l256 125.542 256-125.542v-126.17zM394.125 503.582l-36.169-36.164 123.712-123.75 205.709 205.79-36.169 36.169-169.54-169.54-87.543 87.497z" />
<glyph unicode="&#xe93c;" glyph-name="icon_61_filter" d="M853.645 735.040c-11.435 20.625-32.354 32.96-55.957 32.96h-571.375c-23.603 0-44.523-12.335-55.957-32.96-11.46-20.668-10.833-44.957 4.271-68.335l249.668-263.834c1.562-3.038 2.372-6.37 2.372-9.788v-207.002c0-6.626 3.085-12.877 8.333-16.917l128-98.5c3.793-2.918 8.375-4.416 13.001-4.416 3.209 0 6.438 0.708 9.417 2.21 7.292 3.584 11.917 10.999 11.917 19.123v305.502c0 3.418 0.811 6.75 2.377 9.792l252.25 267.208c12.518 19.998 13.146 44.292 1.685 64.956zM818.377 696.043l-251.396-265.669c-0.977-1.041-1.856-2.167-2.603-3.375-6.357-10.206-9.711-21.918-9.711-33.916v-262.165l-85.333 65.668v196.501c0 11.998-3.354 23.71-9.707 33.916-0.751 1.207-1.626 2.334-2.603 3.375l-248.811 262.293c-5.999 9.626-2.377 18.376-0.542 21.666s7.309 10.996 18.641 10.996h571.375c11.332 0 16.811-7.71 18.645-10.999s5.457-12.040 2.044-18.291z" />
<glyph unicode="&#xe93d;" glyph-name="icon_62_sound_off" d="M850.082 124.749l-639.979 640-36.207-36.169 131.255-131.247h-113.152c-35.29 0-64-28.71-64-64v-213.333c0-35.29 28.71-64 64-64h157.001c4.459 0 8.751-1.374 11.981-3.665l244.877-184.043c3.772-2.833 8.269-4.292 12.813-4.292 3.251 0 6.519 0.751 9.519 2.249 7.249 3.627 11.81 10.999 11.81 19.085v177.161l173.918-173.909 36.164 36.164zM597.333 128.043l-211.145 158.707c-10.918 7.791-23.774 11.917-37.188 11.917h-157.001c-11.772 0-21.333 9.583-21.333 21.333v213.333c0 11.75 9.562 21.333 21.333 21.333h155.819l249.515-249.506v-177.118zM597.333 725.291v-253.376l42.667-42.667v338.752c0 8.085-4.561 15.458-11.814 19.084-7.189 3.627-15.876 2.833-22.332-2.043l-183.642-138.005 30.464-30.464 144.657 108.719z" />
<glyph unicode="&#xe93e;" glyph-name="icon_63_sound_on" d="M686.874 518.127c24.794-24.294 38.46-56.751 38.46-91.46 0-34.21-13.333-66.334-37.5-90.5l30.165-30.165c32.252 32.166 50.001 75.042 50.001 120.666 0 46.251-18.21 89.583-51.29 121.958l-29.837-30.498zM808.542 637.833l-30.165-30.165c48.333-48.333 74.957-112.627 74.957-181.001s-26.624-132.668-74.999-181.043l30.165-30.165c56.418 56.418 87.501 131.418 87.501 211.209s-31.040 154.752-87.458 211.166zM628.207 787.085c-7.292 3.627-15.876 2.833-22.374-2.043l-244.416-183.71c-3.665-2.624-7.957-4.003-12.416-4.003h-157.001c-35.29 0-64-28.71-64-64v-213.333c0-35.29 28.71-64 64-64h157.001c4.459 0 8.751-1.374 11.959-3.665l244.877-184.043c3.793-2.833 8.29-4.292 12.834-4.292 3.251 0 6.498 0.751 9.54 2.249 7.206 3.631 11.789 11.004 11.789 19.089v682.667c0 8.085-4.582 15.458-11.793 19.084zM597.333 128.043l-211.166 158.707c-10.918 7.791-23.791 11.917-37.167 11.917h-157.001c-11.75 0-21.333 9.583-21.333 21.333v213.334c0 11.75 9.583 21.333 21.333 21.333h157.001c13.376 0 26.249 4.125 37.623 12.249l210.709 158.374v-597.248z" />
<glyph unicode="&#xe93f;" glyph-name="icon_64_mute" d="M628.207 787.085c-7.292 3.627-15.876 2.833-22.374-2.043l-244.416-183.71c-3.665-2.624-7.957-4.003-12.416-4.003h-157.001c-35.29 0-64-28.71-64-64v-213.333c0-35.29 28.71-64 64-64h157.001c4.459 0 8.751-1.374 11.96-3.665l244.876-184.043c3.793-2.833 8.29-4.292 12.834-4.292 3.251 0 6.498 0.751 9.54 2.249 7.206 3.631 11.789 11.004 11.789 19.089v682.667c0 8.085-4.582 15.458-11.793 19.084zM597.333 128.043l-211.166 158.707c-10.918 7.791-23.791 11.917-37.167 11.917h-157.001c-11.75 0-21.333 9.583-21.333 21.333v213.334c0 11.75 9.583 21.333 21.333 21.333h157.001c13.376 0 26.248 4.125 37.623 12.249l210.71 158.374v-597.248zM924.749 504.585l-36.164 36.164-77.918-77.914-77.918 77.914-36.164-36.164 77.914-77.918-77.914-77.918 36.164-36.164 77.918 77.914 77.918-77.914 36.164 36.164-77.914 77.918 77.914 77.918z" />
<glyph unicode="&#xe940;" glyph-name="icon_65_play" d="M842.667 445.125l-554.667 320.252c-6.583 3.831-14.75 3.831-21.333 0-6.583-3.793-10.667-10.833-10.667-18.458v-640.5c0-7.625 4.083-14.669 10.667-18.458 3.29-1.916 7.002-2.876 10.667-2.876s7.377 0.96 10.667 2.876l554.667 320.252c6.583 3.793 10.667 10.833 10.667 18.458s-4.083 14.665-10.667 18.453zM298.667 143.377v566.583l490.667-283.294-490.667-283.29z" />
<glyph unicode="&#xe941;" glyph-name="icon_66_pause" d="M256 128h213.333v597.333h-213.333v-597.333zM298.667 682.667h128v-512h-128v512zM554.667 725.334v-597.333h213.333v597.333h-213.333zM725.333 170.667h-128v512h128v-512z" />
<glyph unicode="&#xe942;" glyph-name="icon_67_stop" d="M213.333 725.334v-597.333h597.333v597.333h-597.333zM768 170.667h-512v512h512v-512z" />
<glyph unicode="&#xe943;" glyph-name="icon_68_star" d="M894.042 525.79c-5.167 15.876-19.29 26.667-36.668 27.46l-232.418 3.084-75.584 220.711c-0.043 0.209-0.124 0.375-0.209 0.584-5.875 15.625-20.459 25.749-37.167 25.749s-31.292-10.124-37.376-26.333l-75.584-220.711-233.126-3.123c-16.666-0.751-30.793-11.541-35.96-27.418s-0.041-32.875 13.458-43.665l185.792-140.625-68.293-222.127c-4.416-16.124 1.46-32.875 15.002-42.709 13.457-9.792 31.206-10.21 45.665-0.708l190.426 132.749 190.874-133.082c6.707-4.416 14.293-6.583 21.875-6.583 8.166 0 16.333 2.543 23.334 7.625 13.542 9.835 19.418 26.581 14.793 43.29l-68.083 221.542 186.249 140.958c13.043 10.458 18.167 27.46 13.001 43.332zM657.126 366.498c-7.168-5.419-10.167-14.707-7.501-23.249l69.833-227.166-195.251 136.124c-3.665 2.543-7.957 3.831-12.207 3.831s-8.542-1.293-12.207-3.831l-195.251-136.124 69.833 227.166c2.667 8.542-0.333 17.835-7.501 23.249l-190.54 144.209 238.331 3.166c8.998 0.124 16.96 5.876 19.874 14.417l76.416 229.29 78.498-229.29c2.918-8.542 10.876-14.294 19.874-14.417l238.332-3.166-190.532-144.209z" />
<glyph unicode="&#xe944;" glyph-name="icon_69_heart" d="M813.709 671.377c-82.999 82.918-217.958 83.123-301.709 0-83.209 83.209-218.581 83.123-301.708 0-83.123-83.166-83.123-218.543 0-301.709l286.626-286.626c4.169-4.169 9.626-6.251 15.083-6.251s10.918 2.082 15.083 6.251l286.626 286.626c83.123 83.166 83.123 218.539 0 301.709zM783.543 399.834l-271.543-271.543-271.543 271.543c-66.5 66.543-66.5 174.835 0 241.374s174.749 66.543 240.917 0.499l15.083-16.085c8-8.585 23.083-8.585 31.083 0l14.626 15.582c66.543 66.458 174.75 66.543 241.374 0 66.505-66.534 66.505-174.827 0.004-241.37z" />
<glyph unicode="&#xe945;" glyph-name="icon_70_clip" d="M783.543 698.21c-66.624 66.543-174.835 66.458-241.374 0l-301.708-301.709c-66.5-66.543-66.5-174.835 0-241.374 33.293-33.25 77-49.873 120.665-49.873 43.708 0 87.415 16.623 120.708 49.873l30.165 30.165-30.165 30.165-30.165-30.165c-49.873-49.835-131.084-49.835-181.043 0-49.873 49.916-49.873 131.123 0 181.043l301.708 301.709c49.873 49.792 131.085 49.873 181.043 0 49.873-49.916 49.873-131.124 0-181.043l-165.956-165.918c-24.917-24.917-65.583-24.917-90.5 0-12.083 12.083-18.752 28.126-18.752 45.248 0 17.084 6.665 33.165 18.752 45.248l141.79 141.79-30.165 30.165-141.79-141.79c-20.169-20.169-31.249-46.959-31.249-75.418 0-28.501 11.085-55.292 31.249-75.418 41.54-41.54 109.21-41.626 150.835 0l165.956 165.918c66.496 66.547 66.496 174.839-0.004 241.382z" />
<glyph unicode="&#xe946;" glyph-name="icon_71_grid_menu" d="M405.333 768h-170.667c-35.29 0-64-28.71-64-64v-170.667c0-35.29 28.71-64 64-64h170.667c35.29 0 64 28.71 64 64v170.667c0 35.29-28.71 64-64 64zM426.667 533.334c0-11.75-9.562-21.333-21.333-21.333h-170.667c-11.772 0-21.333 9.583-21.333 21.333v170.667c0 11.75 9.562 21.333 21.333 21.333h170.667c11.772 0 21.333-9.583 21.333-21.333v-170.667zM789.333 768h-170.667c-35.29 0-64-28.71-64-64v-170.667c0-35.29 28.71-64 64-64h170.667c35.29 0 64 28.71 64 64v170.667c0 35.29-28.71 64-64 64zM810.667 533.334c0-11.75-9.562-21.333-21.333-21.333h-170.667c-11.772 0-21.333 9.583-21.333 21.333v170.667c0 11.75 9.562 21.333 21.333 21.333h170.667c11.772 0 21.333-9.583 21.333-21.333v-170.667zM405.333 384h-170.667c-35.29 0-64-28.71-64-64v-170.667c0-35.29 28.71-64 64-64h170.667c35.29 0 64 28.71 64 64v170.667c0 35.29-28.71 64-64 64zM426.667 149.334c0-11.75-9.562-21.333-21.333-21.333h-170.667c-11.772 0-21.333 9.583-21.333 21.333v170.667c0 11.75 9.562 21.333 21.333 21.333h170.667c11.772 0 21.333-9.583 21.333-21.333v-170.667zM789.333 384h-170.667c-35.29 0-64-28.71-64-64v-170.667c0-35.29 28.71-64 64-64h170.667c35.29 0 64 28.71 64 64v170.667c0 35.29-28.71 64-64 64zM810.667 149.334c0-11.75-9.562-21.333-21.333-21.333h-170.667c-11.772 0-21.333 9.583-21.333 21.333v170.667c0 11.75 9.562 21.333 21.333 21.333h170.667c11.772 0 21.333-9.583 21.333-21.333v-170.667z" />
<glyph unicode="&#xe947;" glyph-name="icon_72_apps_menu" d="M234.667 640c35.346 0 64 28.654 64 64s-28.654 64-64 64c-35.346 0-64-28.654-64-64s28.654-64 64-64zM490.667 640c35.345 0 64 28.654 64 64s-28.655 64-64 64c-35.345 0-64-28.654-64-64s28.655-64 64-64zM746.667 640c35.345 0 64 28.654 64 64s-28.655 64-64 64c-35.345 0-64-28.654-64-64s28.655-64 64-64zM234.667 384c35.346 0 64 28.655 64 64s-28.654 64-64 64c-35.346 0-64-28.655-64-64s28.654-64 64-64zM490.667 384c35.345 0 64 28.655 64 64s-28.655 64-64 64c-35.345 0-64-28.655-64-64s28.655-64 64-64zM746.667 384c35.345 0 64 28.655 64 64s-28.655 64-64 64c-35.345 0-64-28.655-64-64s28.655-64 64-64zM234.667 128c35.346 0 64 28.655 64 64s-28.654 64-64 64c-35.346 0-64-28.655-64-64s28.654-64 64-64zM490.667 128c35.345 0 64 28.655 64 64s-28.655 64-64 64c-35.345 0-64-28.655-64-64s28.655-64 64-64zM746.667 128c35.345 0 64 28.655 64 64s-28.655 64-64 64c-35.345 0-64-28.655-64-64s28.655-64 64-64z" />
<glyph unicode="&#xe948;" glyph-name="icon_73_list" d="M789.333 810.667h-554.667c-58.833 0-106.667-47.834-106.667-106.667v-512c0-58.833 47.834-106.667 106.667-106.667h554.667c58.833 0 106.667 47.834 106.667 106.667v512c0 58.833-47.834 106.667-106.667 106.667zM853.333 192c0-35.29-28.71-64-64-64h-554.667c-35.29 0-64 28.71-64 64v512c0 35.29 28.71 64 64 64h554.667c35.29 0 64-28.71 64-64v-512zM725.333 644.25h-256v-51.165h256v51.165zM384 644.25h-85.333v-51.165h85.333v51.165zM725.333 473.583h-256v-51.166h256v51.166zM384 473.583h-85.333v-51.166h85.333v51.166zM725.333 302.917h-256v-51.166h256v51.166zM384 302.917h-85.333v-51.166h85.333v51.166z" />
<glyph unicode="&#xe949;" glyph-name="icon_74_menulist" d="M853.333 686.916h-512v-51.165h512v51.165zM256 686.916h-85.333v-51.165h85.333v51.165zM853.333 473.583h-512v-51.166h512v51.166zM256 473.583h-85.333v-51.166h85.333v51.166zM853.333 260.25h-512v-51.166h512v51.166zM256 260.25h-85.333v-51.166h85.333v51.166z" />
<glyph unicode="&#xe94a;" glyph-name="icon_75_menu" d="M853.333 686.916h-682.667v-51.165h682.667v51.165zM853.333 473.583h-682.667v-51.166h682.667v51.166zM853.333 260.25h-682.667v-51.166h682.667v51.166z" />
<glyph unicode="&#xe94b;" glyph-name="icon_76_menu2" d="M853.333 686.916h-682.667v-51.165h682.667v51.165zM853.333 260.25h-682.667v-51.166h682.667v51.166zM554.667 473.583h-384v-51.166h384v51.166z" />
<glyph unicode="&#xe94c;" glyph-name="icon_77_more" d="M234.667 384c35.346 0 64 28.655 64 64s-28.654 64-64 64c-35.346 0-64-28.655-64-64s28.654-64 64-64zM490.667 384c35.345 0 64 28.655 64 64s-28.655 64-64 64c-35.345 0-64-28.655-64-64s28.655-64 64-64zM746.667 384c35.345 0 64 28.655 64 64s-28.655 64-64 64c-35.345 0-64-28.655-64-64s28.655-64 64-64z" />
<glyph unicode="&#xe94d;" glyph-name="icon_78_option" d="M490.667 640c35.345 0 64 28.654 64 64s-28.655 64-64 64c-35.345 0-64-28.654-64-64s28.655-64 64-64zM490.667 384c35.345 0 64 28.655 64 64s-28.655 64-64 64c-35.345 0-64-28.655-64-64s28.655-64 64-64zM490.667 128c35.345 0 64 28.655 64 64s-28.655 64-64 64c-35.345 0-64-28.655-64-64s28.655-64 64-64z" />
<glyph unicode="&#xe94e;" glyph-name="icon_79_tree_unfold" d="M810.667 768h-640v-42.667h640v42.667zM810.667 128h-640v-42.667h640v42.667zM469.333 640v-339.209l-134.251 134.251-30.164-30.165 185.749-185.754 185.749 185.754-30.165 30.165-134.251-134.251v339.209h-42.667z" />
<glyph unicode="&#xe94f;" glyph-name="icon_80_tree_fold" d="M810.667 768h-640v-42.667h640v42.667zM810.667 640h-640v-42.667h640v42.667zM304.918 321.374l30.164-30.165 134.251 134.251v-339.209h42.667v339.209l134.251-134.251 30.165 30.165-185.749 185.749-185.749-185.749z" />
<glyph unicode="&#xe950;" glyph-name="icon_81_move_updown" d="M810.667 512h-640v-42.667h640v42.667zM810.667 384h-640v-42.667h640v42.667zM469.333 724.664v-169.997h42.667v169.997l99.354-99.371 30.165 30.165-150.852 150.874-150.851-150.874 30.165-30.165 99.353 99.371zM512 128.67v169.997h-42.667v-169.997l-99.353 99.371-30.165-30.165 150.851-150.874 150.852 150.874-30.165 30.165-99.354-99.371z" />
<glyph unicode="&#xe951;" glyph-name="icon_82_ascending" d="M854.835 612.792l-150.835 150.874-150.852-150.874 30.165-30.165 99.354 99.371v-596.664h42.667v596.659l99.332-99.366 30.17 30.165zM554.667 512h-170.667v-42.667h170.667v42.667zM554.667 384h-256v-42.667h256v42.667zM554.667 256h-341.333v-42.667h341.333v42.667z" />
<glyph unicode="&#xe952;" glyph-name="icon_83_descending" d="M824.666 274.791l-99.332-99.366v596.659h-42.667v-596.659l-99.332 99.366-30.17-30.165 150.835-150.874 150.835 150.874-30.17 30.165zM384 384h-170.667v-42.667h170.667v42.667zM469.333 512h-256v-42.667h256v42.667zM554.667 640h-341.333v-42.667h341.333v42.667z" />
<glyph unicode="&#xe953;" glyph-name="icon_84_range" d="M853.333 341.334h-341.333v-42.667h341.333v42.667zM853.333 469.334h-341.333v-42.667h341.333v42.667zM853.333 597.334h-341.333v-42.667h341.333v42.667zM440.666 625.293l30.17 30.165-150.836 150.874-150.835-150.874 30.17-30.165 99.332 99.366v-553.318l-99.332 99.366-30.17-30.165 150.835-150.874 150.836 150.874-30.17 30.165-99.333-99.366v553.318l99.333-99.366z" />
<glyph unicode="&#xe954;" glyph-name="icon_85_to_bottom" d="M853.333 384h-341.333v-42.667h341.333v42.667zM853.333 512h-341.333v-42.667h341.333v42.667zM853.333 640h-341.333v-42.667h341.333v42.667zM304.917 312.666l99.332-99.332h-190.916v512h213.333v42.667h-256v-597.333h233.583l-99.332-99.332 30.165-30.17 150.835 150.835-150.835 150.835-30.165-30.17z" />
<glyph unicode="&#xe955;" glyph-name="icon_86_to_top" d="M853.333 256h-341.333v-42.667h341.333v42.667zM853.333 384h-341.333v-42.667h341.333v42.667zM853.333 512h-341.333v-42.667h341.333v42.667zM335.083 510.498l150.835 150.835-150.835 150.835-30.165-30.17 99.332-99.332h-233.583v-597.333h277.333v42.667h-234.667v512h190.916l-99.332-99.332 30.165-30.17z" />
<glyph unicode="&#xe956;" glyph-name="icon_87_check" d="M798.626 645.419l-392.209-392.252-181.044 181.043-30.165-30.17 211.209-211.209 422.374 422.417-30.165 30.17z" />
<glyph unicode="&#xe957;" glyph-name="icon_88_minus" d="M810.667 469.334h-640v-42.667h640v42.667z" />
<glyph unicode="&#xe958;" glyph-name="icon_89_plus" d="M810.667 469.334h-298.667v298.667h-42.667v-298.667h-298.667v-42.667h298.667v-298.667h42.667v298.667h298.667v42.667z" />
<glyph unicode="&#xe959;" glyph-name="icon_90_x" d="M783.083 710.251l-30.165 30.164-262.251-262.25-262.251 262.25-30.164-30.164 262.25-262.251-262.25-262.251 30.164-30.165 262.251 262.251 262.251-262.251 30.165 30.165-262.251 262.251 262.251 262.251z" />
<glyph unicode="&#xe95a;" glyph-name="icon_91_arrow_up" d="M762.189 526.874l-271.522 271.501-271.522-271.501 30.17-30.165 220.019 220.003v-631.377h42.667v631.377l220.019-220.003 30.17 30.165z" />
<glyph unicode="&#xe95b;" glyph-name="icon_92_arrow_down" d="M732.041 356.625l-220.041-220.002v631.377h-42.667v-631.377l-220.019 220.002-30.17-30.165 271.522-271.501 271.543 271.501-30.17 30.165z" />
<glyph unicode="&#xe95c;" glyph-name="icon_93_arrow_left" d="M853.457 469.21h-631.415l220.040 220.041-30.165 30.165-271.543-271.539 271.543-271.501 30.165 30.165-220.036 220.002h631.411v42.667z" />
<glyph unicode="&#xe95d;" glyph-name="icon_94_arrow_right" d="M612.083 719.625l-30.165-30.165 220.036-220.003h-631.411v-42.667h631.415l-220.041-220.041 30.165-30.165 271.543 271.539-271.543 271.501z" />
<glyph unicode="&#xe95e;" glyph-name="icon_95_undo" d="M640 597.334h-379.042l129.502 129.501-30.165 30.165-181.001-181 181.001-181.001 30.165 30.165-129.502 129.502h379.042c94.127 0 170.667-76.54 170.667-170.667s-76.54-170.667-170.667-170.667h-255.999v-42.667h255.999c117.623 0 213.333 95.71 213.333 213.333s-95.71 213.333-213.333 213.333z" />
<glyph unicode="&#xe95f;" glyph-name="icon_96_redo" d="M211.209 384c0 94.127 76.54 170.667 170.667 170.667h381.167l-129.502-129.502 30.165-30.165 181.001 181.001-181.001 181-30.165-30.165 129.502-129.501h-381.167c-117.623 0-213.333-95.71-213.333-213.333s95.71-213.333 213.333-213.333h256v42.667h-256c-94.127 0-170.667 76.54-170.667 170.667z" />
<glyph unicode="&#xe960;" glyph-name="icon_97_angle_up" d="M768.457 275.832l-256.457 256.419-256.457-256.419-30.17 30.17 286.626 286.583 286.626-286.583-30.17-30.17z" />
<glyph unicode="&#xe961;" glyph-name="icon_98_angle_down" d="M512 260.749l-286.626 286.583 30.169 30.17 256.457-256.418 256.457 256.418 30.17-30.17-286.626-286.583z" />
<glyph unicode="&#xe962;" glyph-name="icon_99_angle_left" d="M632.666 140.041l-286.583 286.626 286.583 286.626 30.17-30.169-256.419-256.457 256.419-256.457-30.17-30.17z" />
<glyph unicode="&#xe963;" glyph-name="icon_100_angle_right" d="M391.335 140.041l-30.17 30.17 256.418 256.457-256.418 256.457 30.17 30.169 286.583-286.626-286.583-286.626z" />
<glyph unicode="&#xe964;" glyph-name="icon_101_angle_double_up" d="M512 638.917l256.439-256.419 30.165 30.17-286.605 286.583-286.604-286.583 30.166-30.17 256.439 256.419zM225.396 199.335l30.166-30.17 256.439 256.418 256.439-256.418 30.165 30.17-286.605 286.583-286.604-286.583z" />
<glyph unicode="&#xe965;" glyph-name="icon_102_angle_double_down" d="M512 214.417l-256.439 256.418-30.166-30.17 286.604-286.583 286.626 286.583-30.17 30.17-256.457-256.418zM798.626 653.999l-30.17 30.17-256.457-256.418-256.439 256.418-30.166-30.17 286.604-286.583 286.626 286.583z" />
<glyph unicode="&#xe966;" glyph-name="icon_103_angle_double_left" d="M556.169 683.124l-30.17 30.169-286.583-286.626 286.583-286.626 30.17 30.17-256.418 256.457 256.418 256.457zM769.502 683.124l-30.17 30.169-286.583-286.626 286.583-286.626 30.17 30.17-256.418 256.457 256.418 256.457z" />
<glyph unicode="&#xe967;" glyph-name="icon_104_angle_double_right" d="M498.001 713.293l-30.17-30.169 256.418-256.457-256.418-256.457 30.17-30.17 286.583 286.626-286.583 286.626zM284.667 713.293l-30.17-30.169 256.419-256.457-256.419-256.457 30.17-30.17 286.584 286.626-286.584 286.626z" />
<glyph unicode="&#xe968;" glyph-name="icon_105_angle_updown" d="M512 737.835l198.251-198.25 30.165 30.164-228.416 228.416-228.417-228.416 30.166-30.164 198.251 198.25zM512 115.708l-198.251 198.251-30.166-30.165 228.417-228.416 228.416 228.416-30.165 30.165-198.251-198.251z" />
<glyph unicode="&#xe969;" glyph-name="icon_106_current_location" d="M490.667 597.334c-82.334 0-149.333-66.999-149.333-149.333s66.999-149.333 149.333-149.333c82.334 0 149.333 66.999 149.333 149.333s-66.999 149.333-149.333 149.333zM490.667 341.334c-58.833 0-106.667 47.834-106.667 106.667s47.834 106.667 106.667 106.667c58.833 0 106.667-47.834 106.667-106.667s-47.834-106.667-106.667-106.667zM896 469.334h-129.079c-10.423 135.889-119.027 244.497-254.921 254.921v129.079h-42.667v-129.079c-135.889-10.423-244.497-119.027-254.921-254.921h-129.079v-42.667h129.079c10.423-135.889 119.027-244.497 254.921-254.921v-129.079h42.667v129.079c135.889 10.423 244.497 119.027 254.921 254.921h129.079v42.667zM490.667 213.334c-129.374 0-234.667 105.293-234.667 234.667s105.293 234.667 234.667 234.667c129.374 0 234.667-105.293 234.667-234.667s-105.293-234.667-234.667-234.667z" />
<glyph unicode="&#xe96a;" glyph-name="icon_107_map" d="M618.667 684.335l-213.333 85.291-234.667-93.832v-600.623l234.667 93.875 213.333-85.376 234.21 93.918v600.623l-234.21-93.875zM426.667 715.171l170.667-68.301v-508.677l-170.667 68.233v508.745zM213.333 646.874l170.667 68.297v-508.745l-170.667-68.262v508.71zM810.21 206.417l-170.21-68.203v508.667l170.21 68.242v-508.707z" />
<glyph unicode="&#xe96b;" glyph-name="icon_108_location" d="M512 810.667c-164.668 0-298.667-133.999-298.667-298.667 0-159.791 271.582-450.334 283.123-462.626l15.543-16.499 15.543 16.499c11.541 12.292 283.123 302.835 283.123 462.626 0 164.668-133.999 298.667-298.667 298.667zM512 95.625c-57.707 64.124-256 293.585-256 416.375 0 141.167 114.833 256 256 256s256-114.833 256-256c0-122.79-198.293-352.252-256-416.375zM512 640c-70.583 0-128-57.417-128-128s57.417-128 128-128c70.583 0 128 57.417 128 128s-57.417 128-128 128zM512 426.667c-47.040 0-85.333 38.293-85.333 85.333s38.293 85.333 85.333 85.333c47.040 0 85.333-38.293 85.333-85.333s-38.293-85.333-85.333-85.333z" />
<glyph unicode="&#xe96c;" glyph-name="icon_109_world" d="M490.667 810.667c-199.957 0-362.667-162.709-362.667-362.667s162.709-362.667 362.667-362.667c199.957 0 362.667 162.709 362.667 362.667s-162.709 362.667-362.667 362.667zM809.587 469.334h-84.949c-4.062 106.957-38.093 201.481-89.455 263.799 97.941-49.847 166.746-148.48 174.404-263.799zM469.333 765.905v-296.572h-170.018c6.165 154.671 78.353 279.59 170.018 296.572zM469.333 426.667v-296.572c-91.665 16.981-163.853 141.901-170.018 296.572h170.018zM512 130.095v296.572h170.018c-6.165-154.671-78.353-279.59-170.018-296.572zM512 469.334v296.572c91.665-16.981 163.853-141.901 170.018-296.572h-170.018zM346.151 733.133c-51.362-62.319-85.394-156.843-89.456-263.799h-84.949c7.659 115.319 76.463 213.952 174.405 263.799zM171.746 426.667h84.949c4.062-106.957 38.094-201.481 89.456-263.799-97.942 49.847-166.746 148.48-174.405 263.799zM635.183 162.868c51.362 62.319 85.393 156.843 89.455 263.799h84.949c-7.659-115.319-76.463-213.952-174.404-263.799z" />
<glyph unicode="&#xe96d;" glyph-name="icon_110_share" d="M682.667 298.667c-38.187 0-72.132-17.148-95.603-43.755l-170.048 123.332c6.144 14.963 9.651 31.275 9.651 48.422s-3.507 33.459-9.651 48.418l170.048 123.332c23.471-26.603 57.417-43.75 95.603-43.75 70.583 0 128 57.417 128 128s-57.417 128-128 128c-70.583 0-128-57.417-128-128 0-17.024 3.49-33.212 9.549-48.086l-170.154-123.413c-23.467 26.466-57.327 43.499-95.395 43.499-70.583 0-128-57.417-128-128s57.417-128 128-128c38.067 0 71.928 17.033 95.395 43.494l170.154-123.413c-6.059-14.869-9.549-31.057-9.549-48.081 0-70.583 57.417-128 128-128s128 57.417 128 128c0 70.583-57.417 128-128 128zM682.667 768c47.040 0 85.333-38.293 85.333-85.333s-38.293-85.333-85.333-85.333c-47.040 0-85.333 38.293-85.333 85.333s38.293 85.333 85.333 85.333zM298.667 341.334c-47.040 0-85.333 38.293-85.333 85.333s38.293 85.333 85.333 85.333c47.040 0 85.333-38.293 85.333-85.333s-38.293-85.333-85.333-85.333zM682.667 85.334c-47.040 0-85.333 38.293-85.333 85.333s38.293 85.333 85.333 85.333c47.040 0 85.333-38.293 85.333-85.333s-38.293-85.333-85.333-85.333z" />
<glyph unicode="&#xe96e;" glyph-name="icon_111_enb" d="M512 597.334h-42.667v-514.667h42.667v514.667zM354.897 646.417l-30.165 30.165c-44.314-44.292-68.732-103.206-68.732-165.913 0-63.543 24.977-123.042 70.353-167.543l29.875 30.498c-37.124 36.378-57.562 85.043-57.562 137.045 0 51.29 19.959 99.498 56.23 135.748zM654.959 678.251l-29.875-30.499c37.124-36.378 57.583-85.085 57.583-137.084 0-51.959-20.437-100.668-57.562-137.126l29.875-30.417c45.376 44.54 70.353 104.043 70.353 167.543 0 63.54-24.998 123.081-70.374 167.582zM270.916 743.292l-29.291 31.001c-73.271-69.21-113.626-162.832-113.626-263.624 0-100.582 40.23-194.082 113.271-263.334l29.333 31.002c-64.439 61.039-99.938 143.582-99.938 232.333 0 88.913 35.605 171.541 100.25 232.623zM739.708 774.293l-29.291-31.001c64.644-61.082 100.25-143.709 100.25-232.623 0-85.457-33.293-165.833-93.73-226.291l30.165-30.165c68.501 68.54 106.231 159.578 106.231 256.457 0 100.792-40.354 194.415-113.626 263.624z" />
<glyph unicode="&#xe96f;" glyph-name="icon_112_filter" d="M467.174 725.334c-9.911 48.64-53 85.333-104.507 85.333s-94.596-36.693-104.508-85.333h-131.49v-42.667h131.49c9.911-48.64 53.001-85.333 104.508-85.333s94.596 36.693 104.507 85.333h386.159v42.667h-386.159zM362.667 640c-35.29 0-64 28.71-64 64s28.71 64 64 64c35.29 0 64-28.71 64-64s-28.71-64-64-64zM362.667 298.667c-51.507 0-94.596-36.693-104.508-85.333h-131.49v-42.667h131.49c9.911-48.64 53.001-85.333 104.508-85.333s94.596 36.693 104.507 85.333h386.159v42.667h-386.159c-9.911 48.64-53 85.333-104.507 85.333zM362.667 128c-35.29 0-64 28.71-64 64s28.71 64 64 64c35.29 0 64-28.71 64-64s-28.71-64-64-64zM617.335 554.667c-51.507 0-94.596-36.693-104.508-85.333h-386.159v-42.667h386.159c9.911-48.64 53.001-85.333 104.508-85.333s94.596 36.693 104.508 85.333h131.49v42.667h-131.49c-9.911 48.64-53.001 85.333-104.508 85.333zM617.335 384c-35.29 0-64 28.71-64 64s28.71 64 64 64c35.29 0 64-28.71 64-64s-28.71-64-64-64z" />
<glyph unicode="&#xe970;" glyph-name="icon_113_graph" d="M844.791 641.293c29.18 5.943 51.209 31.795 51.209 62.707 0 35.29-28.71 64-64 64s-64-28.71-64-64c0-11.908 3.482-22.929 9.165-32.487l-136.405-163.686c-6.912 2.569-14.298 4.173-22.093 4.173-15.437 0-29.419-5.717-40.486-14.848l-110.135 66.095c0.836 4.122 1.289 8.384 1.289 12.753 0 35.29-28.71 64-64 64s-64-28.71-64-64c0-9.852 2.423-19.077 6.413-27.418l-128.329-128.328c-8.341 3.989-17.566 6.413-27.418 6.413-35.29 0-64-28.71-64-64 0-30.912 22.029-56.764 51.209-62.707v-171.959h-51.209v-42.667h768v42.667h-51.209v513.293zM418.125 513.293c10.436 2.125 19.767 7.014 27.695 13.555l110.135-66.095c-0.836-4.122-1.289-8.384-1.289-12.753 0-30.912 22.029-56.764 51.209-62.707v-257.293h-187.75v385.293zM631.458 385.293c29.18 5.943 51.209 31.795 51.209 62.707 0 11.908-3.482 22.929-9.165 32.486l136.405 163.687c3.029-1.126 6.080-2.219 9.306-2.876v-513.297h-187.75l-0.004 257.293zM832 725.334c11.75 0 21.333-9.583 21.333-21.333s-9.583-21.333-21.333-21.333c-11.75 0-21.333 9.583-21.333 21.333s9.583 21.333 21.333 21.333zM618.667 469.334c11.75 0 21.333-9.583 21.333-21.333s-9.583-21.333-21.333-21.333c-11.75 0-21.333 9.583-21.333 21.333s9.583 21.333 21.333 21.333zM405.333 597.334c11.75 0 21.333-9.583 21.333-21.333s-9.583-21.333-21.333-21.333c-11.75 0-21.333 9.583-21.333 21.333s9.583 21.333 21.333 21.333zM170.667 362.667c0 11.75 9.583 21.333 21.333 21.333s21.333-9.583 21.333-21.333c0-11.75-9.583-21.333-21.333-21.333s-21.333 9.583-21.333 21.333zM204.791 299.96c29.18 5.943 51.209 31.795 51.209 62.707 0 9.852-2.423 19.076-6.413 27.418l128.329 128.329c4.634-2.214 9.463-4.070 14.626-5.124v-385.289h-187.75v171.959z" />
<glyph unicode="&#xe971;" glyph-name="icon_114_desktop" d="M789.333 768h-554.667c-58.833 0-106.667-47.834-106.667-106.667v-341.333c0-58.833 47.834-106.667 106.667-106.667h192v-85.333h-170.667v-42.667h512v42.667h-170.667v85.333h192c58.833 0 106.667 47.834 106.667 106.667v341.333c0 58.833-47.834 106.667-106.667 106.667zM554.667 128h-85.333v85.333h85.333v-85.333zM853.333 320c0-35.29-28.71-64-64-64h-554.667c-35.29 0-64 28.71-64 64v341.333c0 35.29 28.71 64 64 64h554.667c35.29 0 64-28.71 64-64v-341.333z" />
<glyph unicode="&#xe972;" glyph-name="icon_115_phone" d="M661.333 853.334h-298.667c-58.833 0-106.667-47.834-106.667-106.667v-640c0-58.833 47.834-106.667 106.667-106.667h298.667c58.833 0 106.667 47.834 106.667 106.667v640c0 58.833-47.834 106.667-106.667 106.667zM725.333 106.667c0-35.29-28.71-64-64-64h-298.667c-35.29 0-64 28.71-64 64v640c0 35.29 28.71 64 64 64h298.667c35.29 0 64-28.71 64-64v-640zM597.333 768h-170.667v-42.667h170.667v42.667zM640 128h-256v-42.667h256v42.667z" />
<glyph unicode="&#xe973;" glyph-name="icon_116_gauge" d="M828.749 579.252l-36.169 36.168-241.399-241.399c-11.785 6.161-24.981 9.98-39.181 9.98-47.040 0-85.333-38.293-85.333-85.333s38.293-85.333 85.333-85.333c47.040 0 85.333 38.293 85.333 85.333 0 14.199-3.819 27.396-9.98 39.185l241.395 241.399zM512 256c-23.543 0-42.667 19.123-42.667 42.667s19.123 42.667 42.667 42.667c23.543 0 42.667-19.123 42.667-42.667s-19.123-42.667-42.667-42.667zM678.874 596.122l31.014 31.014c-57.882 35.004-125.449 55.531-197.888 55.531-211.75 0-384-172.25-384-384h42.667c0 188.207 153.126 341.333 341.333 341.333 60.617 0 117.478-16.056 166.874-43.879zM840.469 496.555l-31.014-31.014c27.823-49.395 43.878-106.257 43.878-166.874h42.667c0 72.439-20.527 140.006-55.531 197.888z" />
<glyph unicode="&#xe974;" glyph-name="icon_117_eye_on" d="M512 597.334c-94.128 0-170.668-76.54-170.668-170.667s76.54-170.667 170.668-170.667c94.127 0 170.667 76.54 170.667 170.667s-76.54 170.667-170.667 170.667zM512 298.667c-70.583 0-128.001 57.417-128.001 128s57.417 128 128.001 128c70.583 0 128-57.417 128-128s-57.417-128-128-128zM894.46 475.29c-7.625 6.498-15.957 13.79-24.875 21.585-79.501 69.5-212.501 185.792-357.585 185.792s-278.085-116.292-357.586-185.792c-8.917-7.791-17.25-15.083-24.874-21.585-14.293-12.207-22.498-29.918-22.498-48.623s8.209-36.416 22.498-48.623c7.625-6.498 15.957-13.79 24.874-21.585 79.501-69.5 212.501-185.792 357.586-185.792s278.084 116.292 357.585 185.792c8.917 7.791 17.25 15.083 24.875 21.585 14.293 12.207 22.498 29.918 22.498 48.623s-8.209 36.416-22.498 48.623zM866.79 410.543c-7.791-6.626-16.209-14.042-25.293-21.956-74.957-65.545-200.414-175.253-329.498-175.253s-254.542 109.709-329.503 175.249c-9.084 7.915-17.502 15.334-25.293 21.956-4.834 4.126-7.501 9.835-7.501 16.124s2.667 11.998 7.501 16.124c7.791 6.626 16.209 14.042 25.293 21.956 74.961 65.548 200.418 175.258 329.503 175.258s254.541-109.708 329.502-175.249c9.084-7.915 17.502-15.334 25.293-21.956 4.834-4.126 7.501-9.835 7.501-16.124s-2.671-12.002-7.505-16.128z" />
<glyph unicode="&#xe975;" glyph-name="icon_118_eye_off" d="M173.918 728.585l121.737-121.737c-55.65-36.032-104.431-77.793-141.236-109.973-8.917-7.791-17.251-15.083-24.875-21.585-14.293-12.207-22.497-29.918-22.497-48.623s8.208-36.416 22.497-48.623c7.625-6.498 15.958-13.79 24.875-21.585 79.497-69.5 212.497-185.792 357.581-185.792 60.198 0 118.238 20.117 171.302 48.533l130.615-130.615 36.169 36.169-640 640-36.168-36.168zM512 213.334c-129.084 0-254.54 109.709-329.501 175.249-9.084 7.915-17.502 15.334-25.293 21.956-4.834 4.126-7.501 9.835-7.501 16.124s2.667 11.998 7.501 16.124c7.791 6.626 16.209 14.042 25.293 21.956 37.295 32.61 87.509 75.69 144.038 111.215l48.478-48.478c-20.907-28.322-33.681-62.976-33.681-100.812 0-94.127 76.54-170.667 170.667-170.667 37.837 0 72.491 12.774 100.817 33.681l38.566-38.566c-44.437-22.285-91.567-37.781-139.383-37.781zM405.333 497.165l177.165-177.165c-20.241-13.423-44.446-21.333-70.498-21.333-70.583 0-128 57.417-128 128 0 26.057 7.91 50.257 21.333 70.498zM639.71 429.543l38.95-38.95c2.517 11.652 4.006 23.68 4.006 36.075 0 94.127-76.54 170.667-170.667 170.667-12.395 0-24.422-1.489-36.075-4.006l38.95-38.951c68.245-1.545 123.29-56.588 124.834-124.834zM894.46 475.29c-7.625 6.498-15.957 13.79-24.875 21.585-79.501 69.5-212.501 185.792-357.585 185.792-36.314 0-71.804-7.441-105.932-19.486l34.299-34.299c23.578 6.665 47.497 11.119 71.633 11.119 129.084 0 254.541-109.708 329.502-175.249 9.084-7.915 17.502-15.334 25.293-21.956 4.834-4.126 7.501-9.835 7.501-16.124s-2.667-11.998-7.501-16.124c-7.791-6.626-16.209-14.042-25.293-21.956-24.418-21.35-54.639-47.275-88.154-72.678l30.438-30.438c32.563 24.947 61.845 50.048 85.798 70.993 8.917 7.791 17.25 15.083 24.875 21.585 14.293 12.207 22.498 29.918 22.498 48.623s-8.209 36.407-22.498 48.614z" />
<glyph unicode="&#xe976;" glyph-name="icon_119_link" d="M813.709 728.375c-58.249 58.167-152.96 58.125-211.209 0l-135.748-135.79 30.165-30.165 135.748 135.79c41.54 41.54 109.248 41.626 150.874 0 41.54-41.583 41.54-109.291 0-150.874l-135.791-135.747 30.165-30.165 135.791 135.747c58.172 58.244 58.172 152.956 0.004 211.204zM391.335 155.124c-41.583-41.502-109.291-41.583-150.874 0-41.54 41.583-41.54 109.291 0 150.874l135.79 135.748-30.165 30.165-135.79-135.748c-58.167-58.249-58.167-152.96 0-211.209 29.124-29.082 67.375-43.627 105.583-43.627 38.251 0 76.5 14.541 105.625 43.627l135.748 135.791-30.165 30.165-135.752-135.787zM617.391 562.429l-241.331-241.328 30.167-30.17 241.329 241.331-30.165 30.167z" />
<glyph unicode="&#xe977;" glyph-name="icon_120_unlink" d="M173.918 728.585l304.917-304.917-102.584-102.583 30.165-30.165 102.584 102.583 304.917-304.917 36.164 36.164-640 640-36.164-36.164zM391.335 155.124c-41.583-41.502-109.291-41.583-150.874 0-41.54 41.583-41.54 109.291 0 150.874l135.79 135.748-30.165 30.165-135.79-135.748c-58.167-58.249-58.167-152.96 0-211.209 29.124-29.082 67.375-43.627 105.583-43.627 38.251 0 76.5 14.541 105.625 43.627l135.748 135.791-30.165 30.165-135.752-135.787zM632.666 698.21c41.502 41.54 109.21 41.626 150.874 0 41.54-41.583 41.54-109.291 0-150.874l-130.833-130.79 30.165-30.165 130.833 130.79c58.167 58.249 58.167 152.961 0 211.21-58.249 58.167-152.96 58.125-211.209 0l-130.79-130.833 30.165-30.165 130.795 130.828zM617.382 562.42l-55.373-55.373 30.17-30.165 55.373 55.372-30.17 30.167z" />
<glyph unicode="&#xe978;" glyph-name="icon_121_cloud" d="M765.082 506.667c-18.206 123.874-126.353 218.667-253.082 218.667-95.292 0-180.77-51.584-225.502-135.292-92.437-24.542-158.498-109.585-158.498-206.042 0-117.623 95.71-213.333 213.333-213.333h384c94.106 0 170.667 76.54 170.667 170.667 0 78.793-55.206 147.123-130.918 165.333zM725.333 213.334h-384c-94.106 0-170.667 76.54-170.667 170.667 0 79.915 56.708 150.042 134.835 166.707l10.189 2.168 4.54 9.373c36.062 74.291 109.542 120.418 191.77 120.418 110.187 0 203.477-85.999 212.416-195.793l1.395-17.041 16.96-2.334c63.019-8.708 110.562-62.959 110.562-126.165 0-70.583-57.417-128-128-128z" />
<glyph unicode="&#xe979;" glyph-name="icon_122_cloud_off" d="M173.897 728.585l122.965-122.961c-3.413-5.235-7.373-9.989-10.364-15.582-92.437-24.542-158.498-109.585-158.498-206.042 0-117.623 95.71-213.333 213.333-213.333h384c2.069 0 4.053 0.311 6.101 0.397l82.483-82.479 36.169 36.169-639.979 640-36.211-36.168zM341.333 213.334c-94.106 0-170.667 76.54-170.667 170.667 0 79.915 56.708 150.042 134.835 166.707l10.189 2.168 4.54 9.373c2.155 4.446 5.197 8.149 7.671 12.335l361.259-361.25h-347.827zM512 682.667c110.165 0 203.499-85.999 212.437-195.793l1.395-17.041 16.96-2.334c62.997-8.708 110.541-62.959 110.541-126.165 0-34.633-13.943-65.988-36.361-89.054l29.743-29.743c30.208 30.707 49.284 72.363 49.284 118.797 0 78.793-55.206 147.123-130.876 165.333-18.249 123.874-126.396 218.667-253.124 218.667-47.65 0-92.578-13.27-131.358-36.728l31.249-31.249c30.115 16.209 64.171 25.31 100.109 25.31z" />
<glyph unicode="&#xe97a;" glyph-name="icon_123_wifi" d="M512 128c23.565 0 42.667 19.102 42.667 42.667s-19.102 42.667-42.667 42.667c-23.565 0-42.667-19.102-42.667-42.667s19.102-42.667 42.667-42.667zM353.527 318.789l36.177-36.177c30.447 33.242 73.779 54.473 122.295 54.473s91.844-21.235 122.295-54.473l36.177 36.177c-39.731 42.487-95.829 69.466-158.473 69.466s-118.741-26.974-158.473-69.466zM232.665 439.65l36.16-36.16c61.397 64.102 147.605 104.26 243.175 104.26s181.777-40.158 243.174-104.26l36.16 36.16c-70.673 73.366-169.664 119.267-279.334 119.267s-208.666-45.897-279.335-119.267zM512 729.584c-156.736 0-298.381-65.041-399.966-169.301l36.177-36.177c92.322 95.002 221.18 154.313 363.789 154.313s271.467-59.311 363.789-154.313l36.177 36.177c-101.585 104.26-243.23 169.301-399.966 169.301z" />
<glyph unicode="&#xe97b;" glyph-name="icon_124_wifi_off" d="M173.917 728.585l69.419-69.419c-48.452-26.662-92.983-59.554-131.302-98.884l36.177-36.177c38.34 39.454 83.375 72.073 132.715 97.468l90.202-90.202c-52.557-20.651-99.917-51.699-138.466-91.721l36.16-36.16c38.758 40.469 87.821 70.434 142.481 87.706l103.207-103.206c-0.858 0.009-1.647 0.26-2.509 0.26-62.639 0-118.742-26.974-158.473-69.466l36.177-36.177c30.447 33.242 73.78 54.473 122.296 54.473 24.525 0 47.684-5.491 68.565-15.147l190.686-190.686 36.169 36.169-597.334 597.333-36.169-36.164zM512 128c23.565 0 42.667 19.102 42.667 42.667s-19.102 42.667-42.667 42.667c-23.565 0-42.667-19.102-42.667-42.667s19.102-42.667 42.667-42.667zM791.334 439.65c-70.673 73.365-169.664 119.266-279.334 119.266-0.525 0-1.020-0.115-1.549-0.119l55.898-55.898c73.613-12.075 139.345-47.748 188.821-99.409l36.164 36.16zM512 729.583c-52.309 0-102.49-8.226-150.409-21.926l41.323-41.323c35.136 7.834 71.599 12.079 109.086 12.079 142.609 0 271.467-59.311 363.789-154.313l36.177 36.177c-101.585 104.26-243.23 169.306-399.966 169.306z" />
<glyph unicode="&#xe97c;" glyph-name="icon_125_bluetooth" d="M512 56.832v318.084l-176.457-176.666-30.165 30.165 201.041 201.293-218.044 216.5 30.084 30.25 193.541-192.123v306.833l223.292-192.666-168.418-168.666 176.29-175.002-231.164-198.003zM554.667 381.833v-232.252l125.585 107.584-125.585 124.668zM554.667 698.002v-219.998l118.042 118.165-118.042 101.833z" />
<glyph unicode="&#xe97d;" glyph-name="icon_126_bluetooth_off" d="M554.667 698.002l118.042-101.833-99.759-99.865 30.17-30.174 132.173 132.369-223.292 192.669v-233.92l42.667-42.667v183.421zM554.667 149.585v103.834l-42.667 42.667v-239.253l128.87 110.383-30.281 30.276-55.923-47.906zM442.304 365.662l-137.145-137.143 30.17-30.17 137.145 137.143-30.17 30.17zM209.912 764.799l-36.167-36.167 639.994-639.991 36.169 36.164-639.995 639.994z" />
<glyph unicode="&#xe97e;" glyph-name="icon_127_th_sorting" d="M490.667 264.141l-98.052 98.057-30.17-30.174 128.222-128.222 128.222 128.222-30.17 30.174-98.052-98.057zM490.667 589.193l98.052-98.052 30.17 30.17-128.222 128.221-128.222-128.221 30.17-30.17 98.052 98.052z" />
<glyph unicode="&#xe97f;" glyph-name="icon_128_th_descending" d="M588.719 362.198l-76.719-76.723v354.526h-42.667v-354.526l-76.719 76.723-30.169-30.174 128.221-128.222 128.222 128.222-30.17 30.174z" />
<glyph unicode="&#xe980;" glyph-name="icon_129_th_ascending" d="M618.889 521.31l-128.222 128.221-128.221-128.221 30.169-30.17 76.719 76.719v-354.526h42.667v354.526l76.719-76.719 30.17 30.17z" />
<glyph unicode="&#xe981;" glyph-name="icon_130_help" d="M516.416 312.875h-51.251v-51.251h51.251v51.251zM491.166 634.376c-33.835 0-61.043-9.084-81.626-27.251s-32.96-44.334-37.125-78.497l46.251-5.5c4.002 25.502 12.416 44.249 25.25 56.251s28.834 18.001 48 18.001c19.831 0 36.582-6.626 50.249-19.874s20.501-28.626 20.501-46.128c0-9.668-2.334-18.58-7.002-26.752s-14.793-19.123-30.374-32.875c-15.582-13.751-26.377-24.209-32.375-31.377-8.166-9.835-14.084-19.584-17.749-29.248-5.001-12.834-7.501-28.083-7.501-45.751 0-2.999 0.085-7.501 0.252-13.5h43.251c0.333 18.001 1.583 31.002 3.75 39.002s5.5 15.083 10.001 21.248c4.501 6.165 14.084 15.748 28.749 28.749 21.833 19.332 36.501 35.75 43.998 49.25s11.251 28.25 11.251 44.25c0 27.665-10.667 51.25-32 70.749s-49.916 29.252-85.751 29.252zM490.667 768c-176.734 0-320-143.266-320-320s143.266-320 320-320c176.734 0 320 143.266 320 320s-143.266 320-320 320zM490.667 153.6c-162.33 0-294.4 132.066-294.4 294.4s132.066 294.4 294.4 294.4c162.334 0 294.4-132.066 294.4-294.4 0-162.33-132.066-294.4-294.4-294.4z" />
<glyph unicode="&#xe982;" glyph-name="icon_131_time" d="M524.791 768h-25.583c-181.167 0-328.542-147.375-328.542-328.542v-25.583c0-181.167 147.375-328.542 328.542-328.542h25.583c181.167 0 328.542 147.375 328.542 328.542v25.583c0 181.167-147.375 328.542-328.542 328.542zM810.667 413.876c0-157.623-128.252-285.875-285.875-285.875h-25.583c-157.623 0-285.875 128.252-285.875 285.875v25.583c0 157.623 128.252 285.875 285.875 285.875h25.583c157.623 0 285.875-128.252 285.875-285.875v-25.583zM514.133 597.334h-46.933v-215.467h215.467v46.933h-168.533v168.533z" />
<glyph unicode="&#xe983;" glyph-name="icon_132_date" d="M682.667 682.667v85.333h-42.667v-85.333h-256v85.333h-42.667v-85.333h-170.423v-554.667h682.666v554.667h-170.91zM341.334 640v-85.333h42.667v85.333h256v-85.333h42.667v85.333h128.243v-128h-597.333v128h127.757zM213.577 170.667v298.667h597.333v-298.667h-597.333z" />
<glyph unicode="&#xe984;" glyph-name="icon_133_search_small" d="M783.083 185.75l-192 192c30.097 36.783 48.917 83.132 48.917 134.251 0 117.623-95.71 213.333-213.333 213.333s-213.333-95.71-213.333-213.333c0-117.623 95.71-213.333 213.333-213.333 51.119 0 97.468 18.82 134.251 48.917l192-192 30.165 30.165zM256 512c0 94.127 76.54 170.667 170.667 170.667s170.667-76.54 170.667-170.667c0-94.127-76.54-170.667-170.667-170.667s-170.667 76.54-170.667 170.667z" />
<glyph unicode="&#xe985;" glyph-name="icon_134_search_big" d="M855.923 173.257l-177.877 177.877c29.794 46.46 47.287 101.572 47.287 160.866 0 164.949-133.717 298.667-298.667 298.667s-298.667-133.717-298.667-298.667c0-164.949 133.717-298.667 298.667-298.667 59.294 0 114.406 17.493 160.866 47.287l177.877-177.877 90.513 90.513zM256 512c0 94.106 76.561 170.667 170.667 170.667s170.667-76.561 170.667-170.667c0-94.106-76.561-170.667-170.667-170.667s-170.667 76.561-170.667 170.667z" />
<glyph unicode="&#xe986;" glyph-name="icon_135_circle_big" d="M512 733.867c-169.392 0-307.2-137.809-307.2-307.2 0-169.387 137.809-307.2 307.2-307.2s307.2 137.813 307.2 307.2c0 169.395-137.809 307.2-307.2 307.2zM512 256c-94.106 0-170.668 76.561-170.668 170.667 0 94.11 76.561 170.667 170.668 170.667s170.667-76.557 170.667-170.667c0-94.106-76.561-170.667-170.667-170.667z" />
<glyph unicode="&#xe987;" glyph-name="icon_136_square_big" d="M256 682.667v-512h512v512h-512zM640 298.667h-256v256h256v-256z" />
<glyph unicode="&#xe988;" glyph-name="icon_137_triangle_big" d="M512 493.052l122.505-214.379h-245.005l122.501 214.379zM512 768.244l-357.773-626.104h715.546l-357.773 626.104z" />
<glyph unicode="&#xe989;" glyph-name="icon_138_exclam_big" d="M597.333 213.334h-170.667v-128h170.667v128zM597.333 768h-170.667v-426.667h170.667v426.667z" />
<glyph unicode="&#xe98a;" glyph-name="icon_139_minus_big" d="M853.333 341.334v170.667h-682.667v-170.667h682.667z" />
<glyph unicode="&#xe98b;" glyph-name="icon_140_plus_big" d="M853.333 512h-256v256h-170.667v-256h-256v-170.667h256v-256h170.667v256h256v170.667z" />
<glyph unicode="&#xe98c;" glyph-name="icon_141_x_big" d="M819.733 631.821l-102.579 102.579-205.154-205.153-205.154 205.153-102.579-102.579 205.154-205.149-205.154-205.158 102.579-102.579 205.154 205.158 205.154-205.158 102.579 102.579-205.154 205.158 205.154 205.149z" />
<glyph unicode="&#xe98d;" glyph-name="icon_142_check_big" d="M874.039 576.747l-120.678 120.678-301.7-301.696-181.021 181.017-120.678-120.678 301.7-301.7 422.379 422.378z" />
<glyph unicode="&#xe98e;" glyph-name="icon_143_refresh_big" d="M821.555 428.792v341.333l-118.592-118.592c-57.118 57.225-135.684 92.989-222.741 92.989-174.097 0-315.734-141.636-315.734-315.734 0-174.093 141.637-315.733 315.734-315.733 77.389 0 148.262 28.092 203.234 74.475l-97.408 97.408c-29.739-21.943-66.116-35.354-105.826-35.354-98.812 0-179.2 80.393-179.2 179.2 0 98.816 80.393 179.2 179.2 179.2 49.442 0 93.871-20.429 126.199-53.001l-126.199-126.199 341.333 0.009z" />
<glyph unicode="&#xe98f;" glyph-name="icon_144_star_fill" d="M512 797.543l93.235-241.788 258.765-13.953-201.143-163.392 66.692-250.411-217.549 140.809-217.549-140.809 66.692 250.411-201.143 163.392 258.765 13.953 93.235 241.788z" />
<glyph unicode="&#xe990;" glyph-name="icon_145_heart_fill" d="M274.598 409.626c-62.106 62.106-62.106 162.799 0 224.908 62.106 62.106 162.8 62.106 224.91 0l12.493-13.328 12.497 13.324c62.106 62.106 162.799 62.106 224.909 0 62.106-62.106 62.106-162.799 0-224.909l-237.406-237.402-237.402 237.406z" />
<glyph unicode="&#xe991;" glyph-name="icon_146_circle_fill" d="M512 661.334c-129.395 0-234.667-105.271-234.667-234.667s105.271-234.667 234.667-234.667c129.395 0 234.667 105.271 234.667 234.667s-105.271 234.667-234.667 234.667z" />
<glyph unicode="&#xe992;" glyph-name="icon_147_triangle_fill" d="M512 661.334l-256-448h512l-256 448z" />
<glyph unicode="&#xe993;" glyph-name="icon_148_play_fill" d="M789.333 426.667l-448 256v-512l448 256z" />
<glyph unicode="&#xe994;" glyph-name="icon_149_pause_fill" d="M426.667 682.667h-170.667v-512h170.667v512zM768 682.667h-170.667v-512h170.667v512z" />
<glyph unicode="&#xe995;" glyph-name="icon_150_stop_fill" d="M298.667 640v-426.667h426.667v426.667h-426.667z" />
<glyph unicode="&#xe996;" glyph-name="icon_151_angle_up_fill" d="M512 500.621l-170.667-199.108h341.333l-170.667 199.108z" />
<glyph unicode="&#xe997;" glyph-name="icon_152_angle_down_fill" d="M341.333 509.154l170.667-199.108 170.667 199.108h-341.333z" />
<glyph unicode="&#xe998;" glyph-name="icon_153_angle_left_fill" d="M395.379 426.667l199.109-170.667v341.333l-199.109-170.667z" />
<glyph unicode="&#xe999;" glyph-name="icon_154_angle_right_fill" d="M426.667 597.334v-341.333l199.113 170.667-199.113 170.667z" />
<glyph unicode="&#xe99a;" glyph-name="icon_155_menu_01" d="M853.333 810.667h-682.667c-47.13 0-85.333-38.204-85.333-85.333v-469.333c0-47.13 38.204-85.333 85.333-85.333h195.661l-76.497-76.497 60.34-60.339 136.836 136.836h49.988l136.836-136.836 60.339 60.339-76.497 76.497h195.661c47.13 0 85.333 38.204 85.333 85.333v469.333c0 47.13-38.204 85.333-85.333 85.333zM853.333 256h-682.667v469.333h682.667v-469.333zM362.667 384c58.91 0 106.667 47.757 106.667 106.667s-47.757 106.667-106.667 106.667c-58.91 0-106.667-47.757-106.667-106.667s47.757-106.667 106.667-106.667zM362.667 533.334c23.526 0 42.667-19.14 42.667-42.667s-19.14-42.667-42.667-42.667c-23.526 0-42.667 19.14-42.667 42.667s19.14 42.667 42.667 42.667zM640 512h-85.333v-170.667h85.333v170.667zM768 640h-85.333v-298.667h85.333v298.667z" />
<glyph unicode="&#xe99b;" glyph-name="icon_156_menu_02" d="M512 512c13.751 0 26.944 2.061 39.757 5.129l87.147-150.947 73.903 42.667-85.739 148.505c33.958 31.194 55.599 75.563 55.599 125.312 0 94.259-76.412 170.667-170.667 170.667-94.259 0-170.667-76.407-170.667-170.667 0-94.255 76.407-170.667 170.667-170.667zM512 768c47.053 0 85.333-38.281 85.333-85.333s-38.281-85.333-85.333-85.333c-47.053 0-85.333 38.281-85.333 85.333s38.281 85.333 85.333 85.333zM768 341.334c-79.437 0-145.6-54.519-164.634-128h-134.033v-85.333h134.033c19.034-73.481 85.201-128 164.634-128 94.255 0 170.667 76.412 170.667 170.667 0 94.259-76.412 170.667-170.667 170.667zM768 85.334c-47.053 0-85.333 38.281-85.333 85.333s38.281 85.333 85.333 85.333c47.053 0 85.333-38.281 85.333-85.333s-38.281-85.333-85.333-85.333zM371.81 499.951l-92.911-160.926c-7.565 1.024-15.057 2.308-22.899 2.308-94.259 0-170.667-76.407-170.667-170.667 0-94.255 76.407-170.667 170.667-170.667 94.255 0 170.667 76.412 170.667 170.667 0 55.59-26.982 104.482-68.122 135.642l87.168 150.976-73.903 42.667zM256 85.334c-47.053 0-85.333 38.281-85.333 85.333s38.281 85.333 85.333 85.333c47.053 0 85.333-38.281 85.333-85.333s-38.281-85.333-85.333-85.333z" />
<glyph unicode="&#xe99c;" glyph-name="icon_157_menu_03" d="M513.19 847.616l-382.81-211.904v-423.808l382.81-211.904 382.81 211.904v423.808l-382.81 211.904zM778.385 603.286l-265.178-129.161-265.213 129.161 265.196 146.799 265.195-146.799zM215.714 524.080l253.62-123.508v-278.758l-253.62 140.39v261.876zM554.667 120.495v278.903l256 124.676v-261.871l-256-141.709z" />
<glyph unicode="&#xe99d;" glyph-name="icon_158_menu_04" d="M511.996 132.442l-309.231 131.844-96.098-51.217 405.329-172.813 405.338 172.809-96.102 51.213-309.235-131.836zM511.996 324.442l-309.231 131.844-96.098-51.217 405.329-172.813 405.338 172.809-96.102 51.213-309.235-131.836zM917.333 597.065l-405.338 216.012-405.329-216.004 405.329-172.813 405.338 172.805zM511.996 717.248l209.34-111.56-209.34-89.246-209.332 89.25 209.332 111.556z" />
<glyph unicode="&#xe99e;" glyph-name="icon_159_menu_05" d="M661.333 597.334c-41.963 0-81.591-9.592-117.244-26.275l-138.756 244.349-317.661-559.407h304.047c28.928-122.257 138.513-213.333 269.615-213.333 153.165 0 277.333 124.169 277.333 277.333s-124.169 277.333-277.333 277.333zM576.41 341.334h-104.917c4.467 39.723 20.77 75.563 45.747 104.196l59.17-104.196zM405.333 642.599l67.767-119.34c-49.775-46.118-82.543-110.118-88.021-181.926h-150.818l171.072 301.265zM661.333 128c-83.319 0-153.702 53.67-180.207 128h241.869l-136.678 240.695c23.061 9.826 48.405 15.305 75.017 15.305 105.869 0 192-86.131 192-192s-86.131-192-192-192z" />
<glyph unicode="&#xe99f;" glyph-name="icon_160_menu_06" d="M610.274 755.951c15.142 0 29.982-1.958 44.233-5.755l-164.911-164.911 181.018-181.017 164.821 164.826c15.151-56.943 0.435-120.243-44.143-164.821l-60.339-60.339c-31.795-31.795-74.159-49.31-119.287-49.31-25.557 0-51.268 5.803-74.347 16.777l-54.396 25.865-204.523-204.523-60.338 60.339 204.522 204.523-25.865 54.396c-31.053 65.305-17.98 143.117 32.529 193.626l60.343 60.338c32.239 32.235 75.098 49.988 120.683 49.988zM610.274 841.284c-65.515 0-131.029-24.993-181.018-74.982l-60.339-60.34c-78.703-78.703-94.469-195.532-49.255-290.615l-222.272-222.272 181.022-181.022 222.272 222.272c35.042-16.661 73.041-25.045 110.989-25.045 65.028 0 129.924 24.602 179.627 74.304l60.339 60.339c99.972 99.972 99.972 262.067 0 362.039l-181.018-181.021-60.339 60.339 181.022 181.018c-49.997 49.988-115.516 74.986-181.030 74.986z" />
<glyph unicode="&#xe9a0;" glyph-name="icon_161_menu_07" d="M810.667 213.334v298.667c0 141.385-114.615 256-256 256v85.333h-85.333v-85.333c-141.385 0-256-114.615-256-256v-298.667h-85.333v-85.333h768v85.333h-85.333zM725.333 213.334h-426.667v298.667c0 94.106 76.561 170.667 170.667 170.667h85.333c94.106 0 170.667-76.561 170.667-170.667v-298.667zM597.333 85.334h-170.667v-85.333h170.667v85.333z" />
<glyph unicode="&#xe9a1;" glyph-name="icon_162_menu_08" d="M213.333 597.334h-85.333v-512h85.333v512zM384 512h-85.333v-426.667h85.333v426.667zM554.667 810.667h-85.333v-725.333h85.333v725.333zM896 426.667h-85.333v-341.333h85.333v341.333zM725.333 682.667h-85.333v-597.333h85.333v597.333z" />
<glyph unicode="&#xe9a2;" glyph-name="icon_163_menu_09" d="M512 850.475l-382.81-211.909v-423.808l382.81-211.9 382.81 211.904v423.808l-382.81 211.905zM809.476 265.063l-297.476-164.668-297.477 164.668v323.212l297.477 164.664 297.476-164.668v-323.209zM341.333 426.667c0-94.259 76.412-170.667 170.667-170.667 94.259 0 170.667 76.407 170.667 170.667s-76.407 170.667-170.667 170.667c-94.255 0-170.667-76.407-170.667-170.667zM597.333 426.667c0-47.053-38.281-85.333-85.333-85.333s-85.333 38.281-85.333 85.333c0 47.053 38.281 85.333 85.333 85.333s85.333-38.281 85.333-85.333z" />
<glyph unicode="&#xe9a3;" glyph-name="icon_164_menu_10" d="M512 469.334c94.259 0 170.667 76.412 170.667 170.667 0 94.259-76.407 170.667-170.667 170.667-94.255 0-170.667-76.407-170.667-170.667 0-94.255 76.412-170.667 170.667-170.667zM512 725.334c47.053 0 85.333-38.281 85.333-85.333s-38.281-85.333-85.333-85.333c-47.053 0-85.333 38.281-85.333 85.333s38.281 85.333 85.333 85.333zM554.667 426.667h-85.333c-188.514 0-341.333-152.819-341.333-341.333v-42.667h768v42.667c0 188.514-152.819 341.333-341.333 341.333zM216.887 128c20.373 120.922 125.82 213.333 252.446 213.333h85.333c126.626 0 232.073-92.412 252.446-213.333h-590.225z" />
<glyph unicode="&#xe9a4;" glyph-name="icon_165_menu_11" d="M512 810.667c-212.079 0-384-171.921-384-384 0-63.258 15.573-122.782 42.667-175.398v-165.935h165.935c52.617-27.093 112.141-42.667 175.398-42.667 212.079 0 384 171.925 384 384 0 212.079-171.921 384-384 384zM256 170.667v101.282l-9.467 18.389c-22.029 42.778-33.199 88.644-33.199 136.329 0 164.685 133.982 298.667 298.667 298.667s298.667-133.982 298.667-298.667c0-164.685-133.982-298.667-298.667-298.667-47.684 0-93.551 11.17-136.333 33.199l-18.385 9.468h-101.282zM554.667 640h-85.333v-85.333h85.333v85.333zM554.667 469.334h-128v-85.333h42.667v-85.333h-42.667v-85.333h170.667v85.333h-42.667v170.667z" />
<glyph unicode="&#xe9a5;" glyph-name="icon_166_menu_12" d="M938.667 298.667h-42.667v384c0 47.13-38.204 85.333-85.333 85.333h-597.333c-47.13 0-85.333-38.204-85.333-85.333v-384h-42.667c-23.565 0-42.667-19.102-42.667-42.667v-42.667c0-70.694 57.306-128 128-128h682.667c70.694 0 128 57.306 128 128v42.667c0 23.565-19.102 42.667-42.667 42.667zM213.333 682.667h597.333v-384h-597.333v384zM853.333 170.667h-682.667c-23.526 0-42.667 19.14-42.667 42.667h768c0-23.526-19.14-42.667-42.667-42.667z" />
<glyph unicode="&#xe9a6;" glyph-name="icon_167_menu_13" d="M810.667 426.667c0 7.428-0.576 14.707-1.109 21.999l121.011 106.351-98.133 169.971-152.299-51.521c-12.147 8.29-25.071 15.455-38.413 21.91l-31.59 157.956h-196.266l-31.59-157.956c-13.342-6.455-26.27-13.62-38.413-21.91l-152.298 51.521-98.133-169.971 121.011-106.351c-0.533-7.292-1.109-14.571-1.109-21.999s0.576-14.707 1.109-21.995l-121.011-106.351 98.133-169.971 152.298 51.52c12.147-8.29 25.071-15.454 38.413-21.909l31.59-157.961h196.266l31.59 157.956c13.342 6.455 26.27 13.619 38.413 21.909l152.299-51.52 98.133 169.971-121.011 106.351c0.533 7.292 1.109 14.571 1.109 21.999zM821.692 280.406l-28.177-48.806-126.345 42.739-35.145-23.996c-7.731-5.278-16.713-10.372-27.46-15.573l-38.191-18.475-8.32-41.604-17.877-89.357h-56.354l-26.189 130.965-38.19 18.475c-10.752 5.201-19.734 10.295-27.465 15.573l-35.145 23.996-126.345-42.739-28.172 48.806 68.467 60.173 31.778 29.504-3.119 42.338c-0.354 4.715-0.777 9.434-0.777 14.242s0.422 9.527 0.883 15.77l3.098 42.317-100.335 88.179 28.173 48.806 126.336-42.738 35.145 23.987c7.735 5.278 16.725 10.376 27.473 15.577l38.191 18.475 26.193 130.961h56.354l26.193-130.965 38.191-18.475c10.752-5.201 19.733-10.296 27.473-15.578l35.145-23.987 126.336 42.74 28.177-48.806-68.467-60.169-31.778-29.512 3.115-42.334c0.35-4.719 0.772-9.438 0.772-14.246s-0.422-9.527-0.879-15.761l-3.098-42.317 100.335-88.183zM512 554.667c-70.694 0-127.999-57.306-127.999-128s57.305-128 127.999-128c70.694 0 128 57.306 128 128s-57.306 128-128 128zM512 384c-23.526 0-42.667 19.14-42.667 42.667s19.14 42.667 42.667 42.667c23.526 0 42.667-19.14 42.667-42.667s-19.14-42.667-42.667-42.667z" />
<glyph unicode="&#xe9a7;" glyph-name="icon_168_menu_14" d="M128 469.334h341.333v341.333h-341.333v-341.333zM213.333 725.334h170.667v-170.667h-170.667v170.667zM128 85.334h341.333v341.333h-341.333v-341.333zM213.333 341.334h170.667v-170.667h-170.667v170.667zM853.333 810.667h-341.333v-341.333h341.333v341.333zM768 554.667h-170.667v170.667h170.667v-170.667zM704 448l-213.333-213.333 213.333-213.333 213.333 213.333-213.333 213.333zM611.345 234.667l92.655 92.655 92.655-92.655-92.655-92.655-92.655 92.655z" />
<glyph unicode="&#xe9a8;" glyph-name="icon_169_menu_15" d="M810.667 810.667h-640v-768l170.663 85.338 149.337-85.338 149.329 85.338 170.671-85.338v426.667h85.333c23.565 0 42.667 19.106 42.667 42.667v170.667c0 70.694-57.306 128-128 128zM725.333 180.741l-88.021 44.015-146.645-83.806-146.65 83.806-88.017-44.011v544.589h469.333v-544.593zM853.333 554.667h-42.667v170.667c23.526 0 42.667-19.14 42.667-42.667v-128zM597.333 597.334h-213.333v-85.333h213.333v85.333zM597.333 426.667h-213.333v-85.333h213.333v85.333z" />
<glyph unicode="&#xe9a9;" glyph-name="icon_170_menu_16" d="M554.667 682.667c43.123 0 84.036-9.378 121.097-25.903l63.68 63.68c-54.861 30.251-117.82 47.556-184.777 47.556h-85.333c-211.75 0-384-172.25-384-384v-170.667h85.333v170.667c0 164.668 133.999 298.667 298.667 298.667h85.333zM917.18 509.513l-69.325-69.325c3.49-18.219 5.478-36.966 5.478-56.188v-170.667h85.333v170.667c0 43.998-7.804 86.118-21.487 125.513zM926.165 652.502l-60.335 60.335-267.678-267.677c-25.378 14.985-54.592 24.175-86.153 24.175-94.127 0-170.667-76.54-170.667-170.667s76.54-170.667 170.667-170.667c94.127 0 170.667 76.54 170.667 170.667 0 31.561-9.19 60.774-24.179 86.157l267.678 267.678zM512 213.334c-47.040 0-85.333 38.293-85.333 85.333s38.293 85.333 85.333 85.333c47.040 0 85.333-38.293 85.333-85.333s-38.293-85.333-85.333-85.333z" />
<glyph unicode="&#xe9aa;" glyph-name="icon_171_menu_17" d="M853.333 85.334v768h-682.667v-768h-42.667v-85.333h768v85.333h-42.667zM469.333 85.334v170.667h85.333v-170.667h-85.333zM640 85.334v256h-256v-256h-128v682.667h512v-682.667h-128zM469.333 512h-128v-85.333h128v85.333zM682.667 512h-128v-85.333h128v85.333zM469.333 682.667h-128v-85.333h128v85.333zM682.667 682.667h-128v-85.333h128v85.333z" />
</font>
</defs>
</svg>
