<svg xmlns="http://www.w3.org/2000/svg" viewBox="0 0 100 100">
  <g transform="translate(-909 -432)">
    <path d="M956,505H921v-1h6V487h9v17h5V474h9v30h5V477h9v3.5h-1V478h-7v26h5v1Zm-7-1V475h-7v29Zm-14,0V488h-7v16Zm34-28V465h9v9h-1v-8h-7v10Z" opacity="0.6"/>
    <path d="M-257-110.5a4.505,4.505,0,0,1,4.5-4.5,4.481,4.481,0,0,1,2.944,1.1l7.59-8.733A4.479,4.479,0,0,1-243-125.5a4.505,4.505,0,0,1,4.5-4.5,4.505,4.505,0,0,1,4.5,4.5,4.5,4.5,0,0,1-.1.925l5.779,2.694A4.5,4.5,0,0,1-224.5-124a4.487,4.487,0,0,1,3.224,1.364l7.18-7.161a4.477,4.477,0,0,1-.9-2.7,4.505,4.505,0,0,1,4.5-4.5,4.505,4.505,0,0,1,4.5,4.5,4.505,4.505,0,0,1-4.5,4.5,4.481,4.481,0,0,1-2.909-1.07l-7.248,7.229A4.473,4.473,0,0,1-220-119.5a4.505,4.505,0,0,1-4.5,4.5,4.505,4.505,0,0,1-4.5-4.5,4.481,4.481,0,0,1,.25-1.48l-5.662-2.639A4.506,4.506,0,0,1-238.5-121a4.477,4.477,0,0,1-2.747-.938l-7.627,8.776A4.476,4.476,0,0,1-248-110.5a4.505,4.505,0,0,1-4.5,4.5A4.505,4.505,0,0,1-257-110.5Zm1.5,0a3,3,0,0,0,3,3,3,3,0,0,0,3-3,3,3,0,0,0-3-3A3,3,0,0,0-255.5-110.5Zm28-9a3,3,0,0,0,3,3,3,3,0,0,0,3-3,3,3,0,0,0-3-3A3,3,0,0,0-227.5-119.5Zm-14-6a3,3,0,0,0,3,3,3,3,0,0,0,3-3,3,3,0,0,0-3-3A3,3,0,0,0-241.5-125.5Zm28-7a3,3,0,0,0,3,3,3,3,0,0,0,3-3,3,3,0,0,0-3-3A3,3,0,0,0-213.5-132.5Z" transform="translate(1184 589)" opacity="0.6"/>
    <path d="M975,559a14.951,14.951,0,0,0,10.893-4.687l.611-.645.53-.711A15,15,0,1,0,975,559m21.9,6.243-9.555-9.555a16.975,16.975,0,1,1,1.292-1.536l9.676,9.677Z" transform="translate(3 -50)" fill="#333"/>
    <path d="M3.853.092a8.477,8.477,0,0,1-1.42-.1,1.91,1.91,0,0,1-.874-.351,1.429,1.429,0,0,1-.46-.707A4.846,4.846,0,0,1,.914-2.225q-.04-.707-.04-1.731C.874-4.638,3.277-8,3.853-8a8.477,8.477,0,0,1,1.42.1,1.91,1.91,0,0,1,.874.351,1.463,1.463,0,0,1,.466.707A4.49,4.49,0,0,1,6.8-5.687q.034.707.035,1.731T6.8-2.225a4.49,4.49,0,0,1-.184,1.162,1.463,1.463,0,0,1-.466.707,1.91,1.91,0,0,1-.874.351A8.477,8.477,0,0,1,3.853.092Zm0-.851A9.122,9.122,0,0,0,4.807-.8a1.236,1.236,0,0,0,.581-.19A.865.865,0,0,0,5.7-1.484a4.378,4.378,0,0,0,.126-.943q.029-.6.029-1.53t-.029-1.53A4.378,4.378,0,0,0,5.7-6.429a.865.865,0,0,0-.311-.495,1.236,1.236,0,0,0-.581-.19,9.121,9.121,0,0,0-.954-.04,9.188,9.188,0,0,0-.943.04A3.145,3.145,0,0,0,1.886-5.486q-.023.6-.023,1.53t.023,1.53a4.2,4.2,0,0,0,.121.943.865.865,0,0,0,.311.495A1.246,1.246,0,0,0,2.9-.8,9.154,9.154,0,0,0,3.853-.759ZM9.786,0V-6.785l-1.633.793v-.886l1.92-1.035h.7V0Zm6.106.092a8.477,8.477,0,0,1-1.42-.1A1.91,1.91,0,0,1,13.6-.357a1.429,1.429,0,0,1-.46-.707,4.846,4.846,0,0,1-.184-1.162q-.04-.707-.04-1.731t.04-1.731a4.846,4.846,0,0,1,.184-1.162,1.429,1.429,0,0,1,.46-.707,1.91,1.91,0,0,1,.874-.351,8.477,8.477,0,0,1,1.42-.1,8.477,8.477,0,0,1,1.42.1,1.91,1.91,0,0,1,.874.351,1.463,1.463,0,0,1,.466.707,4.49,4.49,0,0,1,.184,1.162q.035.707.035,1.731t-.035,1.731a4.49,4.49,0,0,1-.184,1.162,1.463,1.463,0,0,1-.466.707,1.91,1.91,0,0,1-.874.351A8.477,8.477,0,0,1,15.893.092Zm0-.851a9.122,9.122,0,0,0,.955-.04,1.236,1.236,0,0,0,.581-.19.865.865,0,0,0,.311-.495,4.378,4.378,0,0,0,.126-.943q.029-.6.029-1.53t-.029-1.53a4.378,4.378,0,0,0-.126-.943.865.865,0,0,0-.311-.495,1.236,1.236,0,0,0-.581-.19,9.121,9.121,0,0,0-.955-.04,9.188,9.188,0,0,0-.943.04,1.255,1.255,0,0,0-.592.19.865.865,0,0,0-.311.495,4.2,4.2,0,0,0-.121.943q-.023.6-.023,1.53t.023,1.53a4.2,4.2,0,0,0,.121.943.865.865,0,0,0,.311.495,1.246,1.246,0,0,0,.587.19A9.154,9.154,0,0,0,15.893-.759ZM21.827,0V-6.785l-1.633.793v-.886l1.92-1.035h.7V0Zm6.107.092a8.477,8.477,0,0,1-1.42-.1,1.91,1.91,0,0,1-.874-.351,1.429,1.429,0,0,1-.46-.707A4.846,4.846,0,0,1,25-2.225q-.04-.707-.04-1.731T25-5.687a4.846,4.846,0,0,1,.184-1.162,1.429,1.429,0,0,1,.46-.707,1.91,1.91,0,0,1,.874-.351,10.367,10.367,0,0,1,2.841,0,4.759,4.759,0,0,1,1.524,2.22q.035.707.035,1.731t-.035,1.731a4.49,4.49,0,0,1-.184,1.162,1.463,1.463,0,0,1-.466.707,1.91,1.91,0,0,1-.874.351A8.477,8.477,0,0,1,27.934.092Zm0-.851a9.122,9.122,0,0,0,.955-.04,1.236,1.236,0,0,0,.581-.19.865.865,0,0,0,.31-.495,4.378,4.378,0,0,0,.127-.943q.029-.6.029-1.53t-.029-1.53a4.378,4.378,0,0,0-.127-.943.865.865,0,0,0-.31-.495,1.236,1.236,0,0,0-.581-.19,9.121,9.121,0,0,0-.955-.04,9.188,9.188,0,0,0-.943.04,1.255,1.255,0,0,0-.592.19.865.865,0,0,0-.311.495,4.2,4.2,0,0,0-.121.943q-.023.6-.023,1.53t.023,1.53a4.2,4.2,0,0,0,.121.943.865.865,0,0,0,.311.495,1.246,1.246,0,0,0,.586.19A9.154,9.154,0,0,0,27.934-.759ZM3.393,12V5.215L1.76,6.008V5.123L3.68,4.088h.7V12Zm6.107.092a8.477,8.477,0,0,1-1.42-.1,1.91,1.91,0,0,1-.874-.351,1.429,1.429,0,0,1-.46-.707,4.846,4.846,0,0,1-.184-1.161q-.04-.707-.04-1.731t.04-1.731a4.846,4.846,0,0,1,.184-1.162,1.429,1.429,0,0,1,.46-.707,1.91,1.91,0,0,1,.874-.351A8.477,8.477,0,0,1,9.5,4a8.477,8.477,0,0,1,1.42.1,1.91,1.91,0,0,1,.874.351,1.463,1.463,0,0,1,.466.707,4.49,4.49,0,0,1,.184,1.162q.034.707.035,1.731t-.035,1.731a4.49,4.49,0,0,1-.184,1.161,1.463,1.463,0,0,1-.466.707,1.91,1.91,0,0,1-.874.351A8.477,8.477,0,0,1,9.5,12.092Zm0-.851a9.122,9.122,0,0,0,.955-.04,1.236,1.236,0,0,0,.581-.19.865.865,0,0,0,.311-.495,4.378,4.378,0,0,0,.127-.943q.029-.6.029-1.53t-.029-1.53a4.378,4.378,0,0,0-.127-.943.865.865,0,0,0-.311-.495,1.236,1.236,0,0,0-.581-.19,9.121,9.121,0,0,0-.955-.04,9.188,9.188,0,0,0-.943.04,1.255,1.255,0,0,0-.592.19.865.865,0,0,0-.311.495,4.2,4.2,0,0,0-.121.943q-.023.6-.023,1.53t.023,1.53a4.2,4.2,0,0,0,.121.943.865.865,0,0,0,.311.495,1.246,1.246,0,0,0,.586.19A9.154,9.154,0,0,0,9.5,11.241ZM15.433,12V5.215L13.8,6.008V5.123l1.92-1.035h.7V12Zm6.107.092a8.477,8.477,0,0,1-1.42-.1,1.91,1.91,0,0,1-.874-.351,1.429,1.429,0,0,1-.46-.707A4.846,4.846,0,0,1,18.6,9.775q-.04-.707-.04-1.731t.04-1.731a4.846,4.846,0,0,1,.184-1.162,1.429,1.429,0,0,1,.46-.707,1.91,1.91,0,0,1,.874-.351A8.477,8.477,0,0,1,21.54,4a8.477,8.477,0,0,1,1.42.1,1.91,1.91,0,0,1,.874.351,1.463,1.463,0,0,1,.466.707,4.49,4.49,0,0,1,.184,1.162q.034.707.035,1.731t-.035,1.731a4.49,4.49,0,0,1-.184,1.161,1.463,1.463,0,0,1-.466.707,1.91,1.91,0,0,1-.874.351A8.477,8.477,0,0,1,21.54,12.092Zm0-.851a9.122,9.122,0,0,0,.954-.04,1.236,1.236,0,0,0,.581-.19.865.865,0,0,0,.31-.495,4.378,4.378,0,0,0,.126-.943q.029-.6.029-1.53t-.029-1.53a4.378,4.378,0,0,0-.126-.943.865.865,0,0,0-.31-.495,1.236,1.236,0,0,0-.581-.19,11.2,11.2,0,0,0-1.9,0,1.255,1.255,0,0,0-.592.19.865.865,0,0,0-.31.495,4.2,4.2,0,0,0-.121.943q-.023.6-.023,1.53t.023,1.53a4.2,4.2,0,0,0,.121.943.865.865,0,0,0,.31.495,1.246,1.246,0,0,0,.587.19A9.154,9.154,0,0,0,21.54,11.241ZM27.473,12V5.215l-1.633.793V5.123l1.92-1.035h.7V12Z" transform="translate(962 492.333)" fill="#333"/>
  </g>
</svg>
