<svg xmlns="http://www.w3.org/2000/svg" viewBox="0 0 100 100">
  <g transform="translate(-773 -482)">
    <path d="M248.323,239.364C243.6,237.664,241,235.4,241,233v-8h1v8a3.781,3.781,0,0,0,1.613,2.741,16.688,16.688,0,0,0,5.048,2.682A53.157,53.157,0,0,0,266,241c1.7,0,3.392-.062,5.036-.184.18.321.375.643.58.956-1.838.152-3.727.229-5.616.229A54.182,54.182,0,0,1,248.323,239.364ZM250,233.5a1.5,1.5,0,1,1,1.5,1.5A1.5,1.5,0,0,1,250,233.5Zm-5-2a1.5,1.5,0,1,1,1.5,1.5A1.5,1.5,0,0,1,245,231.5Zm3.323-5.136C243.6,224.663,241,222.4,241,220v-8h1v8a3.779,3.779,0,0,0,1.613,2.742,16.711,16.711,0,0,0,5.048,2.681A53.156,53.156,0,0,0,266,228c1.284,0,2.573-.036,3.831-.106-.11.328-.213.671-.3,1.017-1.165.059-2.352.089-3.527.089A54.158,54.158,0,0,1,248.323,226.364ZM250,220.5a1.5,1.5,0,1,1,1.5,1.5A1.5,1.5,0,0,1,250,220.5Zm-5-2a1.5,1.5,0,1,1,1.5,1.5A1.5,1.5,0,0,1,245,218.5Zm45.606-.045a3.7,3.7,0,0,0-.607,0v-6.492h1V212h0v6.161h0v.3c.008,0-.006,0-.036,0C290.9,218.465,290.759,218.46,290.605,218.455Zm-.607,0v0A0,0,0,0,1,290,218.458ZM241,207v-8h1v8a3.779,3.779,0,0,0,1.613,2.741,16.684,16.684,0,0,0,5.048,2.681,59.606,59.606,0,0,0,34.678,0,16.683,16.683,0,0,0,5.048-2.681A3.779,3.779,0,0,0,290,207v-8h1v8c0,4.971-11.192,9-25,9S241,211.971,241,207Zm9,.5a1.5,1.5,0,1,1,1.5,1.5A1.5,1.5,0,0,1,250,207.5Zm-5-2a1.5,1.5,0,1,1,1.5,1.5A1.5,1.5,0,0,1,245,205.5Zm.21-6.5h0c-2.659-1.43-4.209-3.15-4.209-5,0-4.971,11.192-9,25-9s25,4.029,25,9c0,1.85-1.551,3.569-4.209,5h0c-4.485,2.412-12.122,4-20.79,4S249.694,201.412,245.21,199Zm3.451.423a59.626,59.626,0,0,0,34.678,0q.568-.2,1.1-.423H247.563Q248.092,199.218,248.661,199.423ZM284.437,199a15.023,15.023,0,0,0,3.95-2.258,3.137,3.137,0,0,0,0-5.484,16.7,16.7,0,0,0-5.048-2.681,59.626,59.626,0,0,0-34.678,0,16.7,16.7,0,0,0-5.048,2.681,3.137,3.137,0,0,0,0,5.484,15.023,15.023,0,0,0,3.95,2.258Z" transform="translate(553 318)" opacity="0.6"/>
    <path d="M241,198a13,13,0,1,1,17.979,12.012A12.619,12.619,0,0,1,254,211,13,13,0,0,1,241,198Zm13,11a10.654,10.654,0,0,0,4.168-.815l0,0A11.088,11.088,0,0,0,265,198a10.919,10.919,0,0,0-2.775-7.3L246.7,206.225A10.918,10.918,0,0,0,254,209Zm-7.778-18.778a11,11,0,0,0-.9,14.544l15.441-15.441a11,11,0,0,0-14.544.9Z" transform="translate(584 353)" fill="#333"/>
  </g>
</svg>
