<svg xmlns="http://www.w3.org/2000/svg" viewBox="0 0 100 100">
  <g transform="translate(-1057 -1065)">
    <path d="M643.035,464H621v-1h22.035A3.5,3.5,0,0,1,646,460.035V455h1v5.035A3.5,3.5,0,0,1,649.964,463H672v1H649.964a3.5,3.5,0,0,1-6.929,0Zm.965-.5a2.5,2.5,0,1,0,2.5-2.5A2.5,2.5,0,0,0,644,463.5Z" transform="translate(461 683)" opacity="0.6"/>
    <path d="M59,795a2,2,0,0,1-2-2V781a2,2,0,0,1,2-2h47a2,2,0,0,1,2,2v12a2,2,0,0,1-2,2Zm-1-14v12a1,1,0,0,0,1,1h47a1,1,0,0,0,1-1V781a1,1,0,0,0-1-1H59A1,1,0,0,0,58,781Zm41,5.5a1.5,1.5,0,1,1,1.5,1.5A1.5,1.5,0,0,1,99,786.5Zm-5,0a1.5,1.5,0,1,1,1.5,1.5A1.5,1.5,0,0,1,94,786.5ZM59,777a2,2,0,0,1-2-2V763a2,2,0,0,1,2-2h47a2,2,0,0,1,2,2v12a2,2,0,0,1-2,2Zm-1-14v12a1,1,0,0,0,1,1h47a1,1,0,0,0,1-1V763a1,1,0,0,0-1-1H59A1,1,0,0,0,58,763Zm41,5.5a1.5,1.5,0,1,1,1.5,1.5A1.5,1.5,0,0,1,99,768.5Zm-5,0a1.5,1.5,0,1,1,1.5,1.5A1.5,1.5,0,0,1,94,768.5ZM83.721,759H59a2,2,0,0,1-2-2V745a2,2,0,0,1,2-2h47a2,2,0,0,1,2,2v12a2,2,0,0,1-2,2ZM58,745v12a1,1,0,0,0,1,1h47a1,1,0,0,0,1-1V745a1,1,0,0,0-1-1H59A1,1,0,0,0,58,745Zm41,5.5a1.5,1.5,0,1,1,1.5,1.5A1.5,1.5,0,0,1,99,750.5Zm-5,0a1.5,1.5,0,1,1,1.5,1.5A1.5,1.5,0,0,1,94,750.5Z" transform="translate(1025 342)" opacity="0.6"/>
    <path d="M948.518,384.16h-25.31a2.623,2.623,0,0,1-2.271-1.294,2.586,2.586,0,0,1,.041-2.609c.526-.913,11.614-19.982,12.632-21.729a2.577,2.577,0,0,1,4.466-.007c.579.975,11.826,20.282,12.672,21.8a2.628,2.628,0,0,1-.016,2.6A2.528,2.528,0,0,1,948.518,384.16Z" transform="translate(145.899 722)" fill="#eb1313"/>
    <rect width="2" height="8" transform="translate(1081 1089)" fill="#fff"/>
    <rect width="2" height="2" transform="translate(1081 1099)" fill="#fff"/>
  </g>
</svg>
