<svg xmlns="http://www.w3.org/2000/svg" viewBox="0 0 100 100">
  <g transform="translate(-1048 -586)">
    <path d="M39,61.5a3.5,3.5,0,0,1,3-3.465V48h1V58.035A3.5,3.5,0,1,1,39,61.5Zm1,0A2.5,2.5,0,1,0,42.5,59,2.5,2.5,0,0,0,40,61.5ZM65.035,53H54V46h1v6H65.035a3.5,3.5,0,1,1,0,1ZM66,52.5A2.5,2.5,0,1,0,68.5,50,2.5,2.5,0,0,0,66,52.5Zm-55-2a3.5,3.5,0,0,1,3-3.465V36h7v1H15V47.035A3.5,3.5,0,1,1,11,50.5Zm1,0A2.5,2.5,0,1,0,14.5,48,2.5,2.5,0,0,0,12,50.5ZM79.036,26H65V25H79.036a3.5,3.5,0,1,1,0,1ZM80,25.5A2.5,2.5,0,1,0,82.5,23,2.5,2.5,0,0,0,80,25.5Zm-80,0A3.5,3.5,0,0,1,6.965,25H20v1H6.965A3.5,3.5,0,0,1,0,25.5Zm1,0A2.5,2.5,0,1,0,3.5,23,2.5,2.5,0,0,0,1,25.5ZM64,14V13h6V3.964a3.5,3.5,0,1,1,1,0V14H64ZM68,.5a2.5,2.5,0,0,0,5,0,2.5,2.5,0,1,0-5,0ZM30,4V-1H20.964A3.5,3.5,0,0,1,17.5,2,3.5,3.5,0,0,1,14-1.5,3.5,3.5,0,0,1,17.5-5a3.5,3.5,0,0,1,3.465,3H31V4ZM15-1.5A2.5,2.5,0,0,0,17.5,1,2.5,2.5,0,0,0,20-1.5,2.5,2.5,0,0,0,17.5-4,2.5,2.5,0,0,0,15-1.5Z" transform="translate(1056 605)" opacity="0.6"/>
    <path d="M18,54.5a2.5,2.5,0,0,1,2-2.45V47h1v5.05a2.5,2.5,0,1,1-3,2.45Zm1,0A1.5,1.5,0,1,0,20.5,53,1.5,1.5,0,0,0,19,54.5ZM62.05,39H56V38h6.05a2.5,2.5,0,1,1,0,1Zm.95-.5A1.5,1.5,0,1,0,64.5,37,1.5,1.5,0,0,0,63,38.5ZM0,13.5A2.5,2.5,0,0,1,4.95,13H11v1H4.95A2.5,2.5,0,0,1,0,13.5Zm1,0A1.5,1.5,0,1,0,2.5,12,1.5,1.5,0,0,0,1,13.5ZM45,4V-1.05A2.5,2.5,0,0,1,43-3.5,2.5,2.5,0,0,1,45.5-6,2.5,2.5,0,0,1,48-3.5a2.5,2.5,0,0,1-2,2.45V4ZM44-3.5A1.5,1.5,0,0,0,45.5-2,1.5,1.5,0,0,0,47-3.5,1.5,1.5,0,0,0,45.5-5,1.5,1.5,0,0,0,44-3.5Z" transform="translate(1065 605)" opacity="0.4"/>
    <path d="M18.5,35A19.5,19.5,0,0,1-1,15.5,19.508,19.508,0,0,1,12-2.89V.33a16.5,16.5,0,1,0,13,0V-2.89a19.5,19.5,0,0,1,7.288,32.179A19.371,19.371,0,0,1,18.5,35Z" transform="translate(1080 615)" fill="#222"/>
    <rect width="3" height="22" rx="1.5" transform="translate(1097 607)" fill="#222"/>
  </g>
</svg>
