<svg xmlns="http://www.w3.org/2000/svg" viewBox="0 0 100 100">
  <g transform="translate(-1057 -1065)">
    <path d="M643.035,464H621v-1h22.035A3.5,3.5,0,0,1,646,460.035V455h1v5.035A3.5,3.5,0,0,1,649.964,463H672v1H649.964a3.5,3.5,0,0,1-6.929,0Zm.965-.5a2.5,2.5,0,1,0,2.5-2.5A2.5,2.5,0,0,0,644,463.5Z" transform="translate(461 683)" fill="#eb1313" opacity="0.6"/>
    <path d="M623,507a2,2,0,0,1-2-2V457a2,2,0,0,1,2-2h20.827a4.223,4.223,0,0,1,2.942,2l3.172,5H684a2,2,0,0,1,2,2v41a2,2,0,0,1-2,2Zm-1-2a1,1,0,0,0,1,1h61a1,1,0,0,0,1-1V470H622Zm0-35h63a1,1,0,0,0-1-1H623A1,1,0,0,0,622,470Zm62-2a1.993,1.993,0,0,1,1,.268V464a1,1,0,0,0-1-1H649.392l-3.467-5.464a3.349,3.349,0,0,0-2.1-1.536H623a1,1,0,0,0-1,1v11.267a1.993,1.993,0,0,1,1-.268Z" transform="translate(454 630)" fill="#eb1313" opacity="0.6"/>
    <path d="M1090,1091.5a1.5,1.5,0,1,1,1.5,1.5A1.5,1.5,0,0,1,1090,1091.5Zm-5,0a1.5,1.5,0,1,1,1.5,1.5A1.5,1.5,0,0,1,1085,1091.5Zm-5,0a1.5,1.5,0,1,1,1.5,1.5A1.5,1.5,0,0,1,1080,1091.5Z" fill="#eb1313" opacity="0.6"/>
    <path d="M624,458v-1h9v1Zm-3-2v-1h12v1Z" transform="translate(502 674)" fill="#eb1313" opacity="0.4"/>
    <path d="M1578.406,1123.505l7-7-7.021-7.021,3.111-3.111,7.021,7.021,7-7,3.111,3.111-7,7,6.98,6.98-3.111,3.111-6.98-6.98-7,7Z" transform="translate(-481.01)" fill="#eb1313"/>
  </g>
</svg>
