<svg xmlns="http://www.w3.org/2000/svg" xmlns:xlink="http://www.w3.org/1999/xlink" viewBox="0 0 80 80">
  <defs>
    <radialGradient id="radial-gradient" cx="0.502" cy="0.427" r="0.543" gradientUnits="objectBoundingBox">
      <stop offset="0" stop-color="#06c2e7"/>
      <stop offset="0.25" stop-color="#0db8ec"/>
      <stop offset="0.5" stop-color="#12aef1"/>
      <stop offset="0.75" stop-color="#1f86f9"/>
      <stop offset="1" stop-color="#107ddd"/>
    </radialGradient>
  </defs>
  <g transform="translate(-4.212 -2.511)">
    <path d="M403.1,223.106a40,40,0,1,1-40-40A40,40,0,0,1,403.1,223.106Z" transform="translate(-318.886 -180.595)" fill="url(#radial-gradient)"/>
    <path d="M43.622,4.017a.582.582,0,0,0-.583.583v6.727a.583.583,0,0,0,1.166,0V4.6a.582.582,0,0,0-.583-.583Zm-3.815.241a.535.535,0,0,0-.119,0,.582.582,0,0,0-.519.641l.294,2.814a.583.583,0,1,0,1.16-.121l-.294-2.814a.582.582,0,0,0-.522-.52Zm7.657,0a.582.582,0,0,0-.523.52l-.3,2.814a.583.583,0,0,0,1.16.122L48.1,4.9a.582.582,0,0,0-.519-.641.617.617,0,0,0-.118,0Zm-11.576.566a.594.594,0,0,0-.118.012.582.582,0,0,0-.45.691l1.393,6.581a.583.583,0,0,0,1.141-.241L36.461,5.288a.582.582,0,0,0-.574-.463Zm15.5.006a.581.581,0,0,0-.574.462l-1.4,6.58a.583.583,0,1,0,1.141.242l1.4-6.58a.582.582,0,0,0-.449-.692.572.572,0,0,0-.118-.012ZM32.147,5.881a.565.565,0,0,0-.23.027.582.582,0,0,0-.375.735l.874,2.691a.583.583,0,1,0,1.109-.36l-.874-2.691a.582.582,0,0,0-.5-.4Zm22.954,0a.582.582,0,0,0-.5.4l-.875,2.691a.583.583,0,0,0,1.109.361l.875-2.691a.584.584,0,0,0-.6-.762ZM28.448,7.234a.585.585,0,0,0-.522.821L30.658,14.2a.583.583,0,0,0,1.066-.474L28.992,7.581a.582.582,0,0,0-.543-.347Zm30.393.021A.583.583,0,0,0,58.3,7.6l-2.74,6.143a.583.583,0,0,0,1.065.475l2.741-6.143a.585.585,0,0,0-.521-.821Zm-33.827,1.8a.584.584,0,0,0-.546.874l1.415,2.451a.583.583,0,0,0,1.01-.583L25.48,9.342a.582.582,0,0,0-.464-.291Zm37.213,0a.58.58,0,0,0-.464.291l-1.415,2.45a.583.583,0,0,0,1.01.583l1.415-2.451a.584.584,0,0,0-.546-.874ZM21.682,11.13a.584.584,0,0,0-.452.926l3.95,5.445a.583.583,0,1,0,.944-.685l-3.95-5.445a.582.582,0,0,0-.492-.241Zm43.922.03a.581.581,0,0,0-.492.24l-3.957,5.44a.583.583,0,0,0,.943.686l3.957-5.44a.584.584,0,0,0-.451-.927ZM18.7,13.629a.584.584,0,0,0-.464.973l1.893,2.1A.583.583,0,1,0,21,15.925l-1.893-2.1a.581.581,0,0,0-.4-.193Zm49.844,0a.584.584,0,0,0-.4.193l-1.893,2.1a.583.583,0,1,0,.867.781l1.893-2.1a.584.584,0,0,0-.464-.973Zm-52.7,2.739a.584.584,0,0,0-.359,1.016l5,4.5a.583.583,0,0,0,.78-.867l-5-4.5a.582.582,0,0,0-.421-.15Zm55.57.02a.58.58,0,0,0-.421.149l-5,4.5a.583.583,0,1,0,.78.867l5-4.5a.584.584,0,0,0-.359-1.017ZM13.471,19.426a.584.584,0,0,0-.363,1.055L15.4,22.145a.583.583,0,0,0,.686-.944l-2.289-1.663a.583.583,0,0,0-.323-.112Zm60.317.021a.584.584,0,0,0-.323.111l-2.29,1.662a.583.583,0,1,0,.685.944l2.29-1.662a.584.584,0,0,0-.362-1.055ZM11.251,22.684A.584.584,0,0,0,11,23.771l5.825,3.363a.583.583,0,0,0,.583-1.01l-5.825-3.363a.583.583,0,0,0-.332-.077Zm64.74,0a.577.577,0,0,0-.332.077l-5.825,3.363a.583.583,0,0,0,.583,1.01l5.826-3.363a.584.584,0,0,0-.251-1.087ZM9.573,26.156a.583.583,0,0,0-.249,1.116l2.584,1.153a.583.583,0,1,0,.475-1.065L9.8,26.207a.582.582,0,0,0-.226-.051Zm68.108.024a.583.583,0,0,0-.227.051L74.87,27.381a.583.583,0,1,0,.474,1.066L77.929,27.3a.583.583,0,0,0-.248-1.116Zm-69.6,3.605a.583.583,0,0,0-.131,1.136L14.343,33A.583.583,0,1,0,14.7,31.9l-6.4-2.084a.583.583,0,0,0-.231-.027Zm71.1.025a.565.565,0,0,0-.23.027l-6.4,2.08a.583.583,0,0,0,.361,1.109l6.4-2.08a.583.583,0,0,0-.13-1.136ZM7.146,33.594a.583.583,0,0,0-.125,1.154l2.768.588a.583.583,0,0,0,.242-1.141l-2.768-.588a.572.572,0,0,0-.118-.012ZM80.1,33.6a.717.717,0,0,0-.117.012l-2.768.588a.583.583,0,0,0,.242,1.141l2.768-.588A.583.583,0,0,0,80.1,33.6ZM6.441,37.426a.583.583,0,0,0,0,1.161l6.69.707a.583.583,0,1,0,.123-1.16l-6.69-.707a.6.6,0,0,0-.118,0Zm74.368.05a.535.535,0,0,0-.119,0l-6.69.7a.583.583,0,1,0,.121,1.16l6.69-.7a.583.583,0,0,0,0-1.161ZM6.328,41.349a.583.583,0,0,0,0,1.166h2.83a.583.583,0,1,0,0-1.166Zm71.759,0a.583.583,0,1,0,0,1.166h2.83a.583.583,0,1,0,0-1.166ZM13.241,44.528a.532.532,0,0,0-.118,0l-6.691.7a.583.583,0,0,0,.121,1.16l6.691-.7a.583.583,0,0,0,0-1.161ZM74,44.569a.583.583,0,0,0,0,1.161l6.69.707a.583.583,0,0,0,.123-1.16l-6.689-.707a.6.6,0,0,0-.119,0ZM9.906,48.509a.6.6,0,0,0-.118.012l-2.768.588a.583.583,0,0,0,.242,1.141l2.768-.588a.583.583,0,0,0-.125-1.154Zm67.431.006a.583.583,0,0,0-.125,1.154l2.768.588a.583.583,0,1,0,.242-1.141l-2.768-.588a.572.572,0,0,0-.118-.012Zm-62.77,2.3a.565.565,0,0,0-.23.027l-6.4,2.08A.583.583,0,0,0,8.3,54.027l6.4-2.08a.583.583,0,0,0-.13-1.136Zm58.1.021a.583.583,0,0,0-.131,1.136l6.4,2.084a.583.583,0,0,0,.361-1.109l-6.4-2.084a.583.583,0,0,0-.231-.027ZM12.126,55.366a.581.581,0,0,0-.226.051L9.314,56.567a.583.583,0,0,0,.474,1.065l2.585-1.151a.583.583,0,0,0-.248-1.116Zm62.983.022A.583.583,0,0,0,74.86,56.5l2.584,1.153a.583.583,0,1,0,.475-1.065l-2.584-1.153a.582.582,0,0,0-.226-.051Zm-57.95,1.264a.577.577,0,0,0-.332.077L11,60.093a.583.583,0,1,0,.583,1.01l5.825-3.363a.584.584,0,0,0-.251-1.088Zm52.926,0a.584.584,0,0,0-.251,1.088L75.66,61.1a.583.583,0,1,0,.583-1.01l-5.826-3.363a.582.582,0,0,0-.332-.077ZM15.706,61.588a.584.584,0,0,0-.323.112l-2.29,1.662a.583.583,0,1,0,.685.944l2.29-1.662a.584.584,0,0,0-.362-1.056Zm55.818.02a.584.584,0,0,0-.363,1.055l2.289,1.663a.583.583,0,0,0,.686-.944l-2.289-1.663a.583.583,0,0,0-.323-.112Zm-50.631.2a.58.58,0,0,0-.421.149l-5,4.5a.583.583,0,0,0,.78.867l5-4.5a.584.584,0,0,0-.359-1.017Zm45.444.016a.584.584,0,0,0-.36,1.016l5,4.5a.583.583,0,1,0,.781-.867l-5-4.5a.581.581,0,0,0-.421-.15ZM25.639,66.1a.581.581,0,0,0-.492.24l-3.957,5.44a.583.583,0,1,0,.943.686l3.957-5.44a.584.584,0,0,0-.451-.926Zm35.934.024a.584.584,0,0,0-.452.926l3.95,5.445a.583.583,0,0,0,.944-.685l-3.95-5.445a.582.582,0,0,0-.492-.241Zm-41.042.84a.584.584,0,0,0-.4.193l-1.893,2.1a.583.583,0,1,0,.867.78l1.893-2.1a.584.584,0,0,0-.464-.973Zm46.18,0a.584.584,0,0,0-.464.973l1.893,2.1a.583.583,0,1,0,.867-.781l-1.893-2.1a.581.581,0,0,0-.4-.193ZM31.165,69.3a.58.58,0,0,0-.544.346L27.88,75.786a.583.583,0,0,0,1.065.475l2.741-6.143a.584.584,0,0,0-.522-.821Zm24.877.017a.584.584,0,0,0-.523.82l2.732,6.147a.583.583,0,0,0,1.066-.474L56.585,69.66a.582.582,0,0,0-.543-.347ZM26.349,71.2a.58.58,0,0,0-.464.291L24.47,73.938a.583.583,0,0,0,1.01.583l1.415-2.451a.584.584,0,0,0-.546-.874Zm34.546,0a.584.584,0,0,0-.546.874l1.415,2.451a.583.583,0,0,0,1.01-.583l-1.415-2.451a.582.582,0,0,0-.464-.291Zm-23.629.088a.581.581,0,0,0-.574.462l-1.4,6.58a.583.583,0,0,0,1.141.242l1.4-6.58a.582.582,0,0,0-.449-.692.572.572,0,0,0-.118-.012Zm12.691,0a.592.592,0,0,0-.117.012.582.582,0,0,0-.45.691l1.393,6.581a.583.583,0,1,0,1.141-.242l-1.393-6.581a.582.582,0,0,0-.574-.463Zm-6.335.664a.582.582,0,0,0-.583.583v6.727a.583.583,0,1,0,1.166,0V72.535A.582.582,0,0,0,43.622,71.952ZM32.917,74.126a.582.582,0,0,0-.5.4l-.875,2.691a.583.583,0,1,0,1.109.36l.875-2.691a.584.584,0,0,0-.6-.762Zm21.406,0a.567.567,0,0,0-.23.027.582.582,0,0,0-.375.735l.874,2.691a.583.583,0,0,0,1.109-.36l-.875-2.691a.582.582,0,0,0-.5-.4Zm-14.361,1.5a.582.582,0,0,0-.523.52l-.3,2.814a.583.583,0,0,0,1.16.122l.3-2.814a.582.582,0,0,0-.519-.641.6.6,0,0,0-.118,0Zm7.3,0a.535.535,0,0,0-.119,0,.582.582,0,0,0-.519.641l.294,2.814a.583.583,0,0,0,1.16-.121l-.294-2.814a.582.582,0,0,0-.522-.52Z" transform="translate(0.591 0.58)" fill="#f4f2f3"/>
    <path d="M179.4,35.367,147.49,53.905,127.316,85.665,156.829,63.8Z" transform="translate(-107.852 -16.184)" opacity="0.409"/>
    <path d="M38.928,43.575,29.782,34,62.225,12.173Z" transform="translate(9.857 3.725)" fill="#ff5150"/>
    <path d="M45.41,37.5l-9.146-9.578-23.3,31.4Z" transform="translate(3.375 9.797)" fill="#f1f1f1"/>
    <path d="M12.967,65.4,45.41,43.575l23.3-31.4Z" transform="translate(3.375 3.725)" opacity="0.243"/>
  </g>
</svg>
