<svg xmlns="http://www.w3.org/2000/svg" viewBox="0 0 100 100">
  <g transform="translate(-773 -482)">
    <path d="M941,551.5a1.5,1.5,0,1,1,1.5,1.5A1.5,1.5,0,0,1,941,551.5Zm-5-2a1.5,1.5,0,1,1,1.5,1.5A1.5,1.5,0,0,1,936,549.5Zm5-11a1.5,1.5,0,1,1,1.5,1.5A1.5,1.5,0,0,1,941,538.5Zm-5-2a1.5,1.5,0,1,1,1.5,1.5A1.5,1.5,0,0,1,936,536.5Zm5-11a1.5,1.5,0,1,1,1.5,1.5A1.5,1.5,0,0,1,941,525.5Zm-5-2a1.5,1.5,0,1,1,1.5,1.5A1.5,1.5,0,0,1,936,523.5Z" transform="translate(-138)" opacity="0.6"/>
    <path d="M25,1A53.153,53.153,0,0,0,7.661,3.577,16.69,16.69,0,0,0,2.613,6.258,3.779,3.779,0,0,0,1,9a3.779,3.779,0,0,0,1.613,2.742,16.69,16.69,0,0,0,5.048,2.681A53.153,53.153,0,0,0,25,17a53.153,53.153,0,0,0,17.339-2.577,16.69,16.69,0,0,0,5.048-2.681A3.779,3.779,0,0,0,49,9a3.779,3.779,0,0,0-1.613-2.742,16.69,16.69,0,0,0-5.048-2.681A53.153,53.153,0,0,0,25,1m0-1C38.807,0,50,4.029,50,9s-11.193,9-25,9S0,13.971,0,9,11.193,0,25,0Z" transform="translate(794 503)" opacity="0.6"/>
    <path d="M-108,43a54.16,54.16,0,0,1-17.677-2.636C-130.4,38.664-133,36.4-133,34V26h1v8a3.779,3.779,0,0,0,1.613,2.741,16.687,16.687,0,0,0,5.048,2.682A53.163,53.163,0,0,0-108,42c1.427,0,2.836-.043,4.778-.171-.017,0,1,.9.994.935C-103.816,42.907-105.888,43-108,43Zm-1.652-13.019a52.12,52.12,0,0,1-16.025-2.617C-130.4,25.665-133,23.4-133,21V13h1v8a3.779,3.779,0,0,0,1.613,2.741,16.687,16.687,0,0,0,5.048,2.682,51.939,51.939,0,0,0,15.528,2.553ZM-108,17a54.16,54.16,0,0,1-17.677-2.636C-130.4,12.664-133,10.4-133,8V0h1V8a3.779,3.779,0,0,0,1.613,2.741,16.687,16.687,0,0,0,5.048,2.682A53.163,53.163,0,0,0-108,16c.27,0,.539,0,1.127-.009A7.511,7.511,0,0,1-107.5,17Z" transform="translate(927 517)" opacity="0.6"/>
    <path d="M-84,8.529V0h1V8.529C-82.943,8.555-84.032,8.472-84,8.529Z" transform="translate(927 517)" opacity="0.6"/>
    <path d="M975,559a14.951,14.951,0,0,0,10.893-4.687l.611-.645.53-.711A15,15,0,1,0,975,559m21.9,6.243-9.555-9.555a16.975,16.975,0,1,1,1.292-1.536l9.676,9.677Z" transform="translate(-138)" fill="#333"/>
    <path d="M3.853.092a8.477,8.477,0,0,1-1.42-.1,1.91,1.91,0,0,1-.874-.351,1.429,1.429,0,0,1-.46-.707A4.846,4.846,0,0,1,.914-2.225q-.04-.707-.04-1.731C.874-4.638,3.277-8,3.853-8a8.477,8.477,0,0,1,1.42.1,1.91,1.91,0,0,1,.874.351,1.463,1.463,0,0,1,.466.707A4.49,4.49,0,0,1,6.8-5.687q.034.707.035,1.731T6.8-2.225a4.49,4.49,0,0,1-.184,1.162,1.463,1.463,0,0,1-.466.707,1.91,1.91,0,0,1-.874.351A8.477,8.477,0,0,1,3.853.092Zm0-.851A9.122,9.122,0,0,0,4.807-.8a1.236,1.236,0,0,0,.581-.19A.865.865,0,0,0,5.7-1.484a4.378,4.378,0,0,0,.126-.943q.029-.6.029-1.53t-.029-1.53A4.378,4.378,0,0,0,5.7-6.429a.865.865,0,0,0-.311-.495,1.236,1.236,0,0,0-.581-.19,9.121,9.121,0,0,0-.954-.04,9.188,9.188,0,0,0-.943.04A3.145,3.145,0,0,0,1.886-5.486q-.023.6-.023,1.53t.023,1.53a4.2,4.2,0,0,0,.121.943.865.865,0,0,0,.311.495A1.246,1.246,0,0,0,2.9-.8,9.154,9.154,0,0,0,3.853-.759ZM9.786,0V-6.785l-1.633.793v-.886l1.92-1.035h.7V0Zm6.106.092a8.477,8.477,0,0,1-1.42-.1A1.91,1.91,0,0,1,13.6-.357a1.429,1.429,0,0,1-.46-.707,4.846,4.846,0,0,1-.184-1.162q-.04-.707-.04-1.731t.04-1.731a4.846,4.846,0,0,1,.184-1.162,1.429,1.429,0,0,1,.46-.707,1.91,1.91,0,0,1,.874-.351,8.477,8.477,0,0,1,1.42-.1,8.477,8.477,0,0,1,1.42.1,1.91,1.91,0,0,1,.874.351,1.463,1.463,0,0,1,.466.707,4.49,4.49,0,0,1,.184,1.162q.035.707.035,1.731t-.035,1.731a4.49,4.49,0,0,1-.184,1.162,1.463,1.463,0,0,1-.466.707,1.91,1.91,0,0,1-.874.351A8.477,8.477,0,0,1,15.893.092Zm0-.851a9.122,9.122,0,0,0,.955-.04,1.236,1.236,0,0,0,.581-.19.865.865,0,0,0,.311-.495,4.378,4.378,0,0,0,.126-.943q.029-.6.029-1.53t-.029-1.53a4.378,4.378,0,0,0-.126-.943.865.865,0,0,0-.311-.495,1.236,1.236,0,0,0-.581-.19,9.121,9.121,0,0,0-.955-.04,9.188,9.188,0,0,0-.943.04,1.255,1.255,0,0,0-.592.19.865.865,0,0,0-.311.495,4.2,4.2,0,0,0-.121.943q-.023.6-.023,1.53t.023,1.53a4.2,4.2,0,0,0,.121.943.865.865,0,0,0,.311.495,1.246,1.246,0,0,0,.587.19A9.154,9.154,0,0,0,15.893-.759ZM21.827,0V-6.785l-1.633.793v-.886l1.92-1.035h.7V0Zm6.107.092a8.477,8.477,0,0,1-1.42-.1,1.91,1.91,0,0,1-.874-.351,1.429,1.429,0,0,1-.46-.707A4.846,4.846,0,0,1,25-2.225q-.04-.707-.04-1.731T25-5.687a4.846,4.846,0,0,1,.184-1.162,1.429,1.429,0,0,1,.46-.707,1.91,1.91,0,0,1,.874-.351,10.367,10.367,0,0,1,2.841,0,4.759,4.759,0,0,1,1.524,2.22q.035.707.035,1.731t-.035,1.731a4.49,4.49,0,0,1-.184,1.162,1.463,1.463,0,0,1-.466.707,1.91,1.91,0,0,1-.874.351A8.477,8.477,0,0,1,27.934.092Zm0-.851a9.122,9.122,0,0,0,.955-.04,1.236,1.236,0,0,0,.581-.19.865.865,0,0,0,.31-.495,4.378,4.378,0,0,0,.127-.943q.029-.6.029-1.53t-.029-1.53a4.378,4.378,0,0,0-.127-.943.865.865,0,0,0-.31-.495,1.236,1.236,0,0,0-.581-.19,9.121,9.121,0,0,0-.955-.04,9.188,9.188,0,0,0-.943.04,1.255,1.255,0,0,0-.592.19.865.865,0,0,0-.311.495,4.2,4.2,0,0,0-.121.943q-.023.6-.023,1.53t.023,1.53a4.2,4.2,0,0,0,.121.943.865.865,0,0,0,.311.495,1.246,1.246,0,0,0,.586.19A9.154,9.154,0,0,0,27.934-.759ZM3.393,12V5.215L1.76,6.008V5.123L3.68,4.088h.7V12Zm6.107.092a8.477,8.477,0,0,1-1.42-.1,1.91,1.91,0,0,1-.874-.351,1.429,1.429,0,0,1-.46-.707,4.846,4.846,0,0,1-.184-1.161q-.04-.707-.04-1.731t.04-1.731a4.846,4.846,0,0,1,.184-1.162,1.429,1.429,0,0,1,.46-.707,1.91,1.91,0,0,1,.874-.351A8.477,8.477,0,0,1,9.5,4a8.477,8.477,0,0,1,1.42.1,1.91,1.91,0,0,1,.874.351,1.463,1.463,0,0,1,.466.707,4.49,4.49,0,0,1,.184,1.162q.034.707.035,1.731t-.035,1.731a4.49,4.49,0,0,1-.184,1.161,1.463,1.463,0,0,1-.466.707,1.91,1.91,0,0,1-.874.351A8.477,8.477,0,0,1,9.5,12.092Zm0-.851a9.122,9.122,0,0,0,.955-.04,1.236,1.236,0,0,0,.581-.19.865.865,0,0,0,.311-.495,4.378,4.378,0,0,0,.127-.943q.029-.6.029-1.53t-.029-1.53a4.378,4.378,0,0,0-.127-.943.865.865,0,0,0-.311-.495,1.236,1.236,0,0,0-.581-.19,9.121,9.121,0,0,0-.955-.04,9.188,9.188,0,0,0-.943.04,1.255,1.255,0,0,0-.592.19.865.865,0,0,0-.311.495,4.2,4.2,0,0,0-.121.943q-.023.6-.023,1.53t.023,1.53a4.2,4.2,0,0,0,.121.943.865.865,0,0,0,.311.495,1.246,1.246,0,0,0,.586.19A9.154,9.154,0,0,0,9.5,11.241ZM15.433,12V5.215L13.8,6.008V5.123l1.92-1.035h.7V12Zm6.107.092a8.477,8.477,0,0,1-1.42-.1,1.91,1.91,0,0,1-.874-.351,1.429,1.429,0,0,1-.46-.707A4.846,4.846,0,0,1,18.6,9.775q-.04-.707-.04-1.731t.04-1.731a4.846,4.846,0,0,1,.184-1.162,1.429,1.429,0,0,1,.46-.707,1.91,1.91,0,0,1,.874-.351A8.477,8.477,0,0,1,21.54,4a8.477,8.477,0,0,1,1.42.1,1.91,1.91,0,0,1,.874.351,1.463,1.463,0,0,1,.466.707,4.49,4.49,0,0,1,.184,1.162q.034.707.035,1.731t-.035,1.731a4.49,4.49,0,0,1-.184,1.161,1.463,1.463,0,0,1-.466.707,1.91,1.91,0,0,1-.874.351A8.477,8.477,0,0,1,21.54,12.092Zm0-.851a9.122,9.122,0,0,0,.954-.04,1.236,1.236,0,0,0,.581-.19.865.865,0,0,0,.31-.495,4.378,4.378,0,0,0,.126-.943q.029-.6.029-1.53t-.029-1.53a4.378,4.378,0,0,0-.126-.943.865.865,0,0,0-.31-.495,1.236,1.236,0,0,0-.581-.19,11.2,11.2,0,0,0-1.9,0,1.255,1.255,0,0,0-.592.19.865.865,0,0,0-.31.495,4.2,4.2,0,0,0-.121.943q-.023.6-.023,1.53t.023,1.53a4.2,4.2,0,0,0,.121.943.865.865,0,0,0,.31.495,1.246,1.246,0,0,0,.587.19A9.154,9.154,0,0,0,21.54,11.241ZM27.473,12V5.215l-1.633.793V5.123l1.92-1.035h.7V12Z" transform="translate(821 542.333)" fill="#333"/>
  </g>
</svg>
