<svg xmlns="http://www.w3.org/2000/svg" viewBox="0 0 106 24">
<path fill-rule="evenodd" clip-rule="evenodd" fill="#0050FF" d="M54.5,5.2c0,3.9,1,7.7,2.8,11.1c0.3-4,1.6-7.8,3.7-11.1h6.8
	c-3.4,4.7-5.4,10.4-5.6,16.2h-8.3c-3.5-4.7-5.5-10.4-5.6-16.2C48.3,5.2,54.5,5.2,54.5,5.2z"/>
<path fill-rule="evenodd" clip-rule="evenodd" fill="#0050FF" d="M74.8,5.2c0,3.9,1,7.7,2.8,11.1c0.3-4,1.6-7.8,3.7-11.1h6.8
	c-3.4,4.7-5.4,10.4-5.6,16.2h-8.3c-3.5-4.7-5.5-10.4-5.6-16.2C68.7,5.2,74.8,5.2,74.8,5.2z"/>
<path fill-rule="evenodd" clip-rule="evenodd" fill="#0050FF" d="M23.4,21.4C23,15.6,24.7,9.9,28,5.2h-6.8c-1.6,2.8-2.4,5.9-2.6,9.1
	c-1.4-3.5-1.7-7.4-1.1-11.1H12c-2,3.4-3.1,7.2-3.1,11.1C7.4,10,7.1,5.4,8,1H1.3C0.2,8.6,2,16.5,6.7,22.9h6.7c-0.6-3-0.6-6.1,0.1-9.2
	c0.6,2.7,1.6,5.3,3.2,7.6L23.4,21.4C23.4,21.4,23.4,21.4,23.4,21.4z"/>
<path fill="#0050FF" d="M46.6,5.2h-5.5C41.1,5.6,41,6,40.9,6.4c-1.5-1.2-3.4-1.8-5.3-1.8c-4.8,0-8.6,3.9-8.6,8.7
	c0,4.8,3.8,8.7,8.6,8.7c2,0,3.8-0.7,5.3-1.8c0.1,0.4,0.1,0.8,0.2,1.2h5.5C45.6,16,45.6,10.5,46.6,5.2z M36.5,16.9
	c-2.2,0-3.6-1.6-3.6-3.6s1.5-3.6,3.6-3.6c2.2,0,3.7,1.6,3.7,3.6S38.6,16.9,36.5,16.9z"/>
<path fill="#0050FF" d="M103.9,15.6c-1.7,0.9-4.1,1.7-6.3,1.7c-2.7,0-4.4-1.1-4.9-2.7H105c0.5-6-3.1-10-8.8-10
	c-5.8,0-9.2,4.2-9.2,8.6c0,4.8,3.6,8.8,9.8,8.8c2.7,0,5.4-0.8,7.1-1.6V15.6z M96.2,8.9c1.6,0,2.9,0.9,3.4,2.5h-6.9
	C93.2,9.7,94.6,8.9,96.2,8.9z"/>
</svg>
